<?xml version="1.0" encoding="UTF-8"?>
<svg version="1.1" xmlns="http://www.w3.org/2000/svg" width="500" height="500">
<path d="M0 0 C165 0 330 0 500 0 C500 165 500 330 500 500 C335 500 170 500 0 500 C0 335 0 170 0 0 Z " fill="#141414" transform="translate(0,0)"/>
<path d="M0 0 C0 0.99 0 1.98 0 3 C0.66 3 1.32 3 2 3 C2 2.01 2 1.02 2 0 C4 0 6 0 8 0 C8 0.66 8 1.32 8 2 C16.58 2 25.16 2 34 2 C34 1.34 34 0.68 34 0 C34.66 0 35.32 0 36 0 C36 0.66 36 1.32 36 2 C36.66 2 37.32 2 38 2 C38 1.34 38 0.68 38 0 C38.66 0 39.32 0 40 0 C40 0.99 40 1.98 40 3 C40.66 3 41.32 3 42 3 C42.33 2.01 42.66 1.02 43 0 C47.875 0.875 47.875 0.875 49 2 C49.66 2 50.32 2 51 2 C50.34 3.32 49.68 4.64 49 6 C49.76183594 6.3403125 50.52367187 6.680625 51.30859375 7.03125 C59.59991437 10.92330562 65.80459866 15.55081257 72.06640625 22.19140625 C74.65382075 24.61155355 76.50344535 24.78592523 80 25 C82.76864953 24.63141012 82.76864953 24.63141012 85 24 C85.33 22.02 85.66 20.04 86 18 C86.33 19.32 86.66 20.64 87 22 C88.32 22 89.64 22 91 22 C91 22.99 91 23.98 91 25 C90.34 24.67 89.68 24.34 89 24 C88.02985092 24.97014908 87.13765176 26.016339 86.25 27.0625 C84 29 84 29 81.4375 29.375 C79 29 79 29 76 27 C78.5992952 31.42842886 80.15173636 33.38391212 85 35 C87.01254782 36.31431695 89.01310269 37.64721885 91 39 C92.3191582 39.69429379 93.64649406 40.37530495 95 41 C94.01 41.495 94.01 41.495 93 42 C91.125 41.2578125 91.125 41.2578125 89 40.125 C88.29875 39.75632812 87.5975 39.38765625 86.875 39.0078125 C86.25625 38.67523438 85.6375 38.34265625 85 38 C84.34 37.67 83.68 37.34 83 37 C92.31121321 49.39174543 101.26471403 61.14646058 117 65 C117 65.33 117 65.66 117 66 C108.51808725 66.96021654 102.6255508 63.53613536 95.9765625 58.453125 C89.77895684 52.75237381 85.18587149 45.49243553 80.34375 38.65625 C75.79144205 32.25755142 70.91268528 26.12362775 66 20 C66.28617188 20.56332031 66.57234375 21.12664062 66.8671875 21.70703125 C73.62535508 35.3864946 73.62535508 35.3864946 72 43 C69.53087987 49.488618 67.00972107 55.1670283 61 59 C60.01 58.67 59.02 58.34 58 58 C60.31 56.02 62.62 54.04 65 52 C64.01 52.66 63.02 53.32 62 54 C57.90550049 56.04724975 54.55664174 56.33752902 50 56 C48.515 55.01 48.515 55.01 47 54 C47.88042969 53.91363281 48.76085937 53.82726562 49.66796875 53.73828125 C56.8798772 52.96201298 56.8798772 52.96201298 63.1875 49.6875 C66.60668011 44.61768122 67.23923299 40.79896507 67.125 34.6875 C67.10695313 33.43324219 67.08890625 32.17898438 67.0703125 30.88671875 C67.04710937 29.93410156 67.02390625 28.98148437 67 28 C66.98582031 28.78503906 66.97164062 29.57007813 66.95703125 30.37890625 C66.64469022 37.25885053 66.06205892 42.09613042 61 47 C56.79588668 50.50342777 52.27717693 50.66658359 47 51 C50.43625087 47.34898345 54.02908719 44.40953215 58.1328125 41.52734375 C60.93306566 39.2367601 62.70789812 37.24143301 63.546875 33.67578125 C63.61390625 32.89589844 63.6809375 32.11601562 63.75 31.3125 C63.82734375 30.52488281 63.9046875 29.73726563 63.984375 28.92578125 C63.98953125 28.29027344 63.9946875 27.65476562 64 27 C63.67 26.67 63.34 26.34 63 26 C59.75283938 29.48783514 59.75283938 29.48783514 59 34 C57 33 57 33 56 30 C54.02 29.67 52.04 29.34 50 29 C50.33 28.34 50.66 27.68 51 27 C52.4540625 27.0309375 52.4540625 27.0309375 53.9375 27.0625 C56.87465895 27.35618499 56.87465895 27.35618499 58 26 C58.34932703 23.00576829 58.54088712 20.90312883 58 18 C50.81667717 9.3800126 36.79771759 5.44892092 26.0625 4.1875 C11.72845636 3.33467361 -0.94374242 7.40470351 -13 15 C-15.72467021 17.85127105 -15.97470903 18.6269582 -16.25 22.6875 C-16.37375369 25.84354174 -16.37375369 25.84354174 -15 27 C-12.66702567 27.04092937 -10.33294775 27.04241723 -8 27 C-8 27.66 -8 28.32 -8 29 C-10.31 29.33 -12.62 29.66 -15 30 C-15.33 31.32 -15.66 32.64 -16 34 C-16.66 33.34 -17.32 32.68 -18 32 C-18 31.34 -18 30.68 -18 30 C-18.96113866 28.63838689 -19.95884159 27.30144802 -21 26 C-21.4428427 30.97952019 -21.70595644 34.7584904 -19.1875 39.1875 C-15.7731098 42.67136907 -11.40933442 45.03336264 -7.23046875 47.484375 C-6.49441406 47.98453125 -5.75835937 48.4846875 -5 49 C-5 49.66 -5 50.32 -5 51 C-11.0083523 51.7670237 -14.17981432 50.1745733 -19.046875 46.6484375 C-22.96871111 43.33840782 -24.28685679 39.99200245 -25 35 C-25.48058009 40.76696108 -24.56327959 45.30341372 -21 50 C-16.9347905 53.20135249 -13.77427033 53.33011973 -8.6875 53.1875 C-7.43324219 53.16042969 -6.17898437 53.13335937 -4.88671875 53.10546875 C-3.93410156 53.07066406 -2.98148437 53.03585937 -2 53 C-4.7343066 55.7343066 -6.76993555 55.95340665 -10.578125 56.09765625 C-11.45984375 56.08605469 -12.3415625 56.07445312 -13.25 56.0625 C-14.14203125 56.05347656 -15.0340625 56.04445313 -15.953125 56.03515625 C-16.62859375 56.02355469 -17.3040625 56.01195312 -18 56 C-17.34 56.99 -16.68 57.98 -16 59 C-18.71674362 58.92009578 -20.48635633 58.44173356 -22.5625 56.65625 C-27.2393454 51.51172006 -30.1448769 46.04701873 -30.1875 39 C-30.125625 38.01 -30.06375 37.02 -30 36 C-29.67 36 -29.34 36 -29 36 C-28.01 31.71 -27.02 27.42 -26 23 C-30.35776126 27.73669702 -34.24008005 32.61998878 -37.9375 37.875 C-55.01932751 62.06995833 -55.01932751 62.06995833 -67 66 C-69.44725234 66.2832683 -71.52748692 66.20604276 -74 66 C-71 64 -71 64 -68.46875 62.87890625 C-56.49920967 57.57136008 -48.56532482 48.4571896 -41 38 C-43.90346249 38.86255068 -43.90346249 38.86255068 -46 40.125 C-48 41 -48 41 -51 40 C-50.21753906 39.51789063 -49.43507812 39.03578125 -48.62890625 38.5390625 C-47.61699219 37.90742188 -46.60507813 37.27578125 -45.5625 36.625 C-44.55316406 35.99851562 -43.54382813 35.37203125 -42.50390625 34.7265625 C-39.91988937 33.24183698 -39.91988937 33.24183698 -39 31 C-39.99 31.33 -40.98 31.66 -42 32 C-55.179198 33.32294364 -55.179198 33.32294364 -60.75 29.25 C-63.93726449 26.506181 -65.84240491 23.90374863 -66.1953125 19.640625 C-66.17210937 18.85171875 -66.14890625 18.0628125 -66.125 17.25 C-66.10695312 16.45078125 -66.08890625 15.6515625 -66.0703125 14.828125 C-66.04710937 14.22484375 -66.02390625 13.6215625 -66 13 C-64.28197083 15.57704376 -63.63881405 17.02449381 -62.8125 19.875 C-61.35960255 23.78056096 -59.62124347 25.86897049 -56.109375 28.09765625 C-52.24110901 29.75241448 -48.18138214 30.10701892 -44 30 C-43.34 29.67 -42.68 29.34 -42 29 C-42.639375 28.360625 -43.27875 27.72125 -43.9375 27.0625 C-44.95833333 26.04166667 -45.97916667 25.02083333 -47 24 C-47.66 24.33 -48.32 24.66 -49 25 C-49 24.01 -49 23.02 -49 22 C-47.68 22 -46.36 22 -45 22 C-44.67 20.35 -44.34 18.7 -44 17 C-43.67 17 -43.34 17 -43 17 C-42.34 19.31 -41.68 21.62 -41 24 C-36.1526063 25.12686683 -36.1526063 25.12686683 -31.52734375 23.7890625 C-28.93088536 21.95107495 -26.91723796 20.0112607 -24.75 17.6875 C-20.51991163 13.33655196 -16.15192087 10.18928435 -11 7 C-15.62 9.31 -20.24 11.62 -25 14 C-25.495 12.02 -25.495 12.02 -26 10 C-25.34 10 -24.68 10 -24 10 C-24 9.34 -24 8.68 -24 8 C-22.23244474 7.15973604 -20.46082737 6.32801278 -18.6875 5.5 C-17.70136719 5.0359375 -16.71523437 4.571875 -15.69921875 4.09375 C-13 3 -13 3 -10 3 C-9.67 2.67 -9.34 2.34 -9 2 C-8.34 2 -7.68 2 -7 2 C-6.67 1.67 -6.34 1.34 -6 1 C-3.91734618 0.39535857 -2.17384564 0 0 0 Z " fill="#BA8930" transform="translate(229,255)"/>
<path d="M0 0 C0 0.33 0 0.66 0 1 C-0.68964844 1.14695313 -1.37929688 1.29390625 -2.08984375 1.4453125 C-9.10838314 3.12051943 -14.30223046 5.603042 -20 10 C-20.79019531 10.57492188 -21.58039063 11.14984375 -22.39453125 11.7421875 C-25.67014872 14.58072857 -28.18314983 17.75776019 -30.8125 21.1875 C-31.31458984 21.82880859 -31.81667969 22.47011719 -32.33398438 23.13085938 C-34.84992248 25.79254276 -34.84992248 25.79254276 -36 29 C-34.9275 28.319375 -33.855 27.63875 -32.75 26.9375 C-30.41402943 25.45505714 -29.53684769 24.90896114 -26.765625 25.37890625 C-26.18296875 25.58386719 -25.6003125 25.78882813 -25 26 C-32 29.5 -32 29.5 -39 33 C-38.67 33.66 -38.34 34.32 -38 35 C-37.01 34.67 -36.02 34.34 -35 34 C-27.28539428 33.00913321 -21.42051818 34.63501495 -15 39 C-12.00788157 42.16812539 -11.85852917 44.6106939 -11.8125 48.8125 C-11.86033796 50.20891272 -11.91795172 51.60517921 -12 53 C-12.29261719 52.4121875 -12.58523438 51.824375 -12.88671875 51.21875 C-17.41287956 42.069885 -17.41287956 42.069885 -26 37 C-27.89212737 36.77820215 -29.78884472 36.59385985 -31.6875 36.4375 C-32.68136719 36.35371094 -33.67523438 36.26992187 -34.69921875 36.18359375 C-35.83810547 36.09271484 -35.83810547 36.09271484 -37 36 C-36.236875 36.99 -35.47375 37.98 -34.6875 39 C-34.25824219 39.556875 -33.82898438 40.11375 -33.38671875 40.6875 C-31.95508863 42.34370205 -31.95508863 42.34370205 -29 42 C-29.33 42.99 -29.66 43.98 -30 45 C-30.66 45 -31.32 45 -32 45 C-32.66 46.65 -33.32 48.3 -34 50 C-34.33 50 -34.66 50 -35 50 C-35.495 46.535 -35.495 46.535 -36 43 C-38.97 42.34 -41.94 41.68 -45 41 C-45.66 42.32 -46.32 43.64 -47 45 C-48.7265625 46.921875 -48.7265625 46.921875 -50.625 48.75 C-51.25664062 49.36359375 -51.88828125 49.9771875 -52.5390625 50.609375 C-53.26222656 51.29773438 -53.26222656 51.29773438 -54 52 C-53.34 52 -52.68 52 -52 52 C-52 53.32 -52 54.64 -52 56 C-52.66 56 -53.32 56 -54 56 C-54 56.66 -54 57.32 -54 58 C-54.66 58 -55.32 58 -56 58 C-56.474375 58.495 -56.94875 58.99 -57.4375 59.5 C-59 61 -59 61 -62 61 C-62 61.66 -62 62.32 -62 63 C-64.22832241 63.50003749 -66.45724356 63.99692788 -68.6875 64.48828125 C-70.35632507 64.85756518 -72.0227303 65.23784426 -73.6875 65.625 C-76.48266628 66.07827021 -79.17353514 66.06573174 -82 66 C-82 65.34 -82 64.68 -82 64 C-82.66 64 -83.32 64 -84 64 C-84 64.66 -84 65.32 -84 66 C-84.66 66 -85.32 66 -86 66 C-86 65.34 -86 64.68 -86 64 C-89.63 64 -93.26 64 -97 64 C-97 63.67 -97 63.34 -97 63 C-95.43765625 62.70609375 -95.43765625 62.70609375 -93.84375 62.40625 C-85.77872484 60.76784928 -78.43466657 58.65078685 -71.0625 54.9375 C-70.38316406 54.5971875 -69.70382812 54.256875 -69.00390625 53.90625 C-65.76636319 52.20123245 -64.06514041 51.09771061 -62 48 C-61.75892674 45.71351152 -61.75892674 45.71351152 -61.875 43.3125 C-61.89304687 42.50425781 -61.91109375 41.69601563 -61.9296875 40.86328125 C-61.95289063 40.24839844 -61.97609375 39.63351563 -62 39 C-64.87413125 38.66602213 -64.87413125 38.66602213 -68 39 C-69.91256712 40.88077873 -69.91256712 40.88077873 -71 43 C-70.125 38.125 -70.125 38.125 -69 37 C-67.00041636 36.95919217 -64.99954746 36.95745644 -63 37 C-63 35.68 -63 34.36 -63 33 C-62.01 33 -61.02 33 -60 33 C-60.33 33.99 -60.66 34.98 -61 36 C-59.68 37.32 -58.36 38.64 -57 40 C-56.01112648 35.9620998 -55.81877333 33.52460353 -57.1875 29.5625 C-60.07824099 24.98893479 -64.8871399 22.53619111 -69.41796875 19.796875 C-72 18 -72 18 -73 15 C-65.85256858 15.83410668 -60.7426161 17.36814338 -56 23 C-53.54322993 26.6282101 -53.79548517 29.95619897 -53.875 34.25 C-53.89304687 35.51328125 -53.91109375 36.7765625 -53.9296875 38.078125 C-53.95289063 39.04234375 -53.97609375 40.0065625 -54 41 C-51.9689737 34.9069211 -52.15468527 27.59844418 -54.1875 21.5 C-56.16812088 17.67535278 -57.24418237 16.07768635 -61 14 C-64.30675415 13.11752267 -67.61565068 12.49943796 -71 12 C-71 11.67 -71 11.34 -71 11 C-69.39592672 10.97291433 -67.7917215 10.95356517 -66.1875 10.9375 C-65.29417969 10.92589844 -64.40085937 10.91429687 -63.48046875 10.90234375 C-61 11 -61 11 -58 12 C-58.66 11.54625 -59.32 11.0925 -60 10.625 C-60.66 10.08875 -61.32 9.5525 -62 9 C-62 8.34 -62 7.68 -62 7 C-57.37655109 7.72146126 -55.52555535 10.27130985 -52.6171875 13.72265625 C-50.28703049 17.00401262 -49.16565622 20.16019126 -48 24 C-47.95101562 23.16855469 -47.90203125 22.33710938 -47.8515625 21.48046875 C-47.77679688 20.39378906 -47.70203125 19.30710938 -47.625 18.1875 C-47.55539062 17.10855469 -47.48578125 16.02960938 -47.4140625 14.91796875 C-47 12 -47 12 -45 9 C-44.34 9 -43.68 9 -43 9 C-42.875 14.75 -42.875 14.75 -44 17 C-44.2787918 20.24372049 -44.44687219 23.48738099 -44.62109375 26.73828125 C-44.98283537 29.85224261 -45.68924582 32.17153045 -47 35 C-47.66 35 -48.32 35 -49 35 C-50.98 39.95 -50.98 39.95 -53 45 C-46.82523239 37.75621578 -41.18346962 30.23022288 -35.69458008 22.45947266 C-29.02399647 13.07307479 -22.39739616 4.9334502 -11.375 0.5625 C-7.47601464 -0.08733089 -3.94747327 -0.13850783 0 0 Z " fill="#A97D2D" transform="translate(349,128)"/>
<path d="M0 0 C8.87405201 -0.78880462 17.28968651 2.61590267 24.125 8.2109375 C31.21793298 14.97877772 36.61150671 23.52068529 42.2565918 31.49121094 C45.62194101 36.21599021 49.16202154 40.64913854 53 45 C52.6390625 44.24976563 52.278125 43.49953125 51.90625 42.7265625 C48.41566497 35.02788329 46.03519627 28.61134626 48.921875 20.3671875 C51.42882383 14.91375984 54.37343403 10.82194581 59 7 C59.99 7 60.98 7 62 7 C62 9 62 9 60.5 10.625 C60.005 11.07875 59.51 11.5325 59 12 C59.66 11.67 60.32 11.34 61 11 C62.80948495 10.87823497 64.62396271 10.82454208 66.4375 10.8125 C67.40558594 10.79832031 68.37367188 10.78414062 69.37109375 10.76953125 C72 11 72 11 75 13 C74.13117188 13.02578125 73.26234375 13.0515625 72.3671875 13.078125 C63.37028244 13.33100237 63.37028244 13.33100237 56 18 C53.51711249 22.46919753 52.62730678 25.90652601 53 31 C53.5259375 29.205625 53.5259375 29.205625 54.0625 27.375 C55.90921394 22.55302471 58.48296031 19.53354256 63 17 C66.3071588 15.99724631 69.57061272 15.40021019 73 15 C71.50277682 19.03984479 69.2114079 20.36783602 65.5625 22.5 C60.50086613 25.44531957 60.50086613 25.44531957 57 30 C56.63965477 32.58881802 56.63965477 32.58881802 56.8125 35.25 C56.83957031 36.14203125 56.86664063 37.0340625 56.89453125 37.953125 C56.94673828 38.96632813 56.94673828 38.96632813 57 40 C58.98 37.525 58.98 37.525 61 35 C60.67 34.34 60.34 33.68 60 33 C60.99 33 61.98 33 63 33 C63.495 35.97 63.495 35.97 64 39 C63.34 39 62.68 39 62 39 C61.86342784 40.39303605 61.76728851 41.79006121 61.6875 43.1875 C61.60048828 44.35345703 61.60048828 44.35345703 61.51171875 45.54296875 C62.24757859 49.24581545 64.13696292 50.61349526 67 53 C69.30188735 54.35894555 71.460507 55.52525781 73.875 56.625 C74.51832275 56.92349854 75.16164551 57.22199707 75.82446289 57.52954102 C82.66590373 60.54541058 89.62674732 61.90185598 97 63 C97 63.33 97 63.66 97 64 C93.04 64 89.08 64 85 64 C84.67 64.66 84.34 65.32 84 66 C84 65.34 84 64.68 84 64 C83.34 64 82.68 64 82 64 C82 64.66 82 65.32 82 66 C81.34 66 80.68 66 80 66 C80 65.34 80 64.68 80 64 C79.34 64 78.68 64 78 64 C78 64.66 78 65.32 78 66 C74.65747276 66.07427838 72.1964086 66.06546953 69 65 C69.09023437 64.23171875 69.18046875 63.4634375 69.2734375 62.671875 C69.18320313 61.79015625 69.09296875 60.9084375 69 60 C67.14853591 58.39388329 67.14853591 58.39388329 64.625 57.25 C59.48588273 54.43954524 55.47634212 51.05830959 51.2265625 47.05078125 C47.46902408 43.33736557 47.46902408 43.33736557 42.640625 41.70703125 C41.85171875 41.74183594 41.0628125 41.77664062 40.25 41.8125 C39.45078125 41.83957031 38.6515625 41.86664063 37.828125 41.89453125 C37.22484375 41.92933594 36.6215625 41.96414062 36 42 C36 44.31 36 46.62 36 49 C37.32 49.33 38.64 49.66 40 50 C40 48.35 40 46.7 40 45 C40.99 45.495 40.99 45.495 42 46 C41.67 47.65 41.34 49.3 41 51 C38.525 51.495 38.525 51.495 36 52 C33 48.375 33 48.375 33 45 C31.68 44.67 30.36 44.34 29 44 C29.33 43.01 29.66 42.02 30 41 C30.66 41.33 31.32 41.66 32 42 C33.65 40.02 35.3 38.04 37 36 C28.34475534 36.28010501 23.0611199 36.9388801 16.75 43.25 C14.49226695 46.79786621 13.83636885 49.88785315 13 54 C12.67 54 12.34 54 12 54 C11.54309889 45.28503437 11.54309889 45.28503437 13 41.1875 C16.79672307 37.03483415 20.35072029 34.26828149 26.0859375 33.6875 C29.0734953 33.6875 32.01978758 33.80131917 35 34 C35.99 34 36.98 34 38 34 C33.98745115 30.48901975 29.79016959 28.23462006 25 26 C26.703125 25.31640625 26.703125 25.31640625 29 25 C31.359375 26.21484375 31.359375 26.21484375 33.75 27.9375 C34.54921875 28.50339844 35.3484375 29.06929687 36.171875 29.65234375 C37.07679688 30.31943359 37.07679688 30.31943359 38 31 C29.94585379 17.74012515 20.04706394 6.76490358 5 2 C3.34327363 1.62033354 1.67929755 1.26239024 0 1 C0 0.67 0 0.34 0 0 Z " fill="#B98830" transform="translate(151,128)"/>
<path d="M0 0 C0.66 0.33 1.32 0.66 2 1 C2.07037402 3.53346458 2.07102638 5.7237863 1.4375 8.1875 C0.77357897 10.08432232 0.77357897 10.08432232 2 12 C3.32 12 4.64 12 6 12 C6.66 10.68 7.32 9.36 8 8 C8.66 8 9.32 8 10 8 C11.625 10 11.625 10 13 12 C15.43717258 11.72965366 15.43717258 11.72965366 18 11 C18.66 10.01 19.32 9.02 20 8 C20.66 8 21.32 8 22 8 C22.66 9.32 23.32 10.64 24 12 C25.65 11.67 27.3 11.34 29 11 C28.67 7.7 28.34 4.4 28 1 C28.99 1 29.98 1 31 1 C31.144375 2.0725 31.28875 3.145 31.4375 4.25 C31.83749442 6.91662949 32.27591924 9.41399729 33 12 C34.32 12 35.64 12 37 12 C37 12.99 37 13.98 37 15 C36.34 15 35.68 15 35 15 C34.855625 16.27875 34.71125 17.5575 34.5625 18.875 C34.29357254 21.25692894 34.07773654 22.84452691 33 25 C21.69221801 27.92162788 8.17520464 28.72506821 -3 25 C-5.18933026 21.6532531 -5.17952697 18.94959335 -5 15 C-5.66 15 -6.32 15 -7 15 C-6.67 13.68 -6.34 12.36 -6 11 C-6 11.66 -6 12.32 -6 13 C-3.86124923 11.98239527 -3.86124923 11.98239527 -2 10 C-1.83333333 6.5 -1.83333333 6.5 -2 3 C-1.34 2.01 -0.68 1.02 0 0 Z " fill="#C89333" transform="translate(235,161)"/>
<path d="M0 0 C5.28 0 10.56 0 16 0 C14.02 0.99 14.02 0.99 12 2 C11.67 8.27 11.34 14.54 11 21 C17.6 21 24.2 21 31 21 C30.9175 18.091875 30.835 15.18375 30.75 12.1875 C30.73420898 11.27508545 30.71841797 10.3626709 30.70214844 9.42260742 C30.6715332 8.69920166 30.64091797 7.9757959 30.609375 7.23046875 C30.58842773 6.49207764 30.56748047 5.75368652 30.54589844 4.99291992 C30.05535535 2.40290713 30.05535535 2.40290713 26 0 C31.28 0 36.56 0 42 0 C39 2 39 2 37 2 C37.04409314 7.49985921 37.11386205 12.9985638 37.20751953 18.49780273 C37.23575737 20.36880304 37.2569579 22.23992326 37.27099609 24.11108398 C37.29238717 26.79994221 37.33901545 29.48735438 37.390625 32.17578125 C37.39185364 33.01337479 37.39308228 33.85096832 37.39434814 34.71394348 C37.41637775 37.34828988 37.41637775 37.34828988 38 41 C39.32 41.99 40.64 42.98 42 44 C36.72 44 31.44 44 26 44 C27.32 43.01 28.64 42.02 30 41 C30.63612368 38.89295409 30.63612368 38.89295409 30.609375 36.55078125 C30.63999023 35.78677002 30.67060547 35.02275879 30.70214844 34.2355957 C30.71793945 33.27097412 30.73373047 32.30635254 30.75 31.3125 C30.8325 28.239375 30.915 25.16625 31 22 C24.4 22 17.8 22 11 22 C11.0825 25.073125 11.165 28.14625 11.25 31.3125 C11.26579102 32.27712158 11.28158203 33.24174316 11.29785156 34.2355957 C11.3284668 34.99960693 11.35908203 35.76361816 11.390625 36.55078125 C11.41157227 37.33106689 11.43251953 38.11135254 11.45410156 38.9152832 C11.92376298 41.59065232 11.92376298 41.59065232 16 44 C10.72 44 5.44 44 0 44 C1.32 43.01 2.64 42.02 4 41 C4.40497193 38.0414126 4.5609704 35.45961933 4.53125 32.5 C4.5350769 31.66791016 4.53890381 30.83582031 4.54284668 29.97851562 C4.5455675 28.22003977 4.5381943 26.46152356 4.52148438 24.703125 C4.50007551 22.00949995 4.52127848 19.31854197 4.546875 16.625 C4.54423175 14.91666077 4.53910683 13.20832321 4.53125 11.5 C4.53934692 10.69369141 4.54744385 9.88738281 4.55578613 9.05664062 C4.55833559 6.52103609 4.55833559 6.52103609 4 3 C2.68 2.01 1.36 1.02 0 0 Z " fill="#CD9633" transform="translate(229,202)"/>
<path d="M0 0 C0 0.33 0 0.66 0 1 C-0.68964844 1.14695313 -1.37929688 1.29390625 -2.08984375 1.4453125 C-9.10838314 3.12051943 -14.30223046 5.603042 -20 10 C-20.79019531 10.57492188 -21.58039063 11.14984375 -22.39453125 11.7421875 C-25.67014872 14.58072857 -28.18314983 17.75776019 -30.8125 21.1875 C-31.31458984 21.82880859 -31.81667969 22.47011719 -32.33398438 23.13085938 C-34.84992248 25.79254276 -34.84992248 25.79254276 -36 29 C-34.9275 28.319375 -33.855 27.63875 -32.75 26.9375 C-30.41402943 25.45505714 -29.53684769 24.90896114 -26.765625 25.37890625 C-26.18296875 25.58386719 -25.6003125 25.78882813 -25 26 C-32 29.5 -32 29.5 -39 33 C-38.67 33.66 -38.34 34.32 -38 35 C-37.01 34.67 -36.02 34.34 -35 34 C-27.28539428 33.00913321 -21.42051818 34.63501495 -15 39 C-12.00788157 42.16812539 -11.85852917 44.6106939 -11.8125 48.8125 C-11.86033796 50.20891272 -11.91795172 51.60517921 -12 53 C-12.29261719 52.4121875 -12.58523438 51.824375 -12.88671875 51.21875 C-17.41287956 42.069885 -17.41287956 42.069885 -26 37 C-27.89212737 36.77820215 -29.78884472 36.59385985 -31.6875 36.4375 C-32.68136719 36.35371094 -33.67523438 36.26992187 -34.69921875 36.18359375 C-35.83810547 36.09271484 -35.83810547 36.09271484 -37 36 C-36.236875 36.99 -35.47375 37.98 -34.6875 39 C-34.25824219 39.556875 -33.82898438 40.11375 -33.38671875 40.6875 C-31.95508863 42.34370205 -31.95508863 42.34370205 -29 42 C-29.33 42.99 -29.66 43.98 -30 45 C-30.66 45 -31.32 45 -32 45 C-32.66 46.65 -33.32 48.3 -34 50 C-34.33 50 -34.66 50 -35 50 C-35.495 46.535 -35.495 46.535 -36 43 C-38.97 42.34 -41.94 41.68 -45 41 C-45.66 42.32 -46.32 43.64 -47 45 C-48.7265625 46.921875 -48.7265625 46.921875 -50.625 48.75 C-51.25664062 49.36359375 -51.88828125 49.9771875 -52.5390625 50.609375 C-53.26222656 51.29773438 -53.26222656 51.29773438 -54 52 C-53.34 52 -52.68 52 -52 52 C-52 53.32 -52 54.64 -52 56 C-52.66 56 -53.32 56 -54 56 C-54 56.66 -54 57.32 -54 58 C-54.66 58 -55.32 58 -56 58 C-56.474375 58.495 -56.94875 58.99 -57.4375 59.5 C-59 61 -59 61 -62 61 C-62 61.66 -62 62.32 -62 63 C-65.465 63.495 -65.465 63.495 -69 64 C-69 63.01 -69 62.02 -69 61 C-69.66 60.67 -70.32 60.34 -71 60 C-69.98292969 59.50693359 -69.98292969 59.50693359 -68.9453125 59.00390625 C-60.78798738 54.83485782 -53.15511828 49.73267742 -48 42 C-48 41.01 -48 40.02 -48 39 C-47.04125977 37.38110352 -47.04125977 37.38110352 -45.69140625 35.62890625 C-45.19616455 34.97784912 -44.70092285 34.32679199 -44.19067383 33.65600586 C-43.65337646 32.96514893 -43.1160791 32.27429199 -42.5625 31.5625 C-41.4526652 30.11754054 -40.3432941 28.67222482 -39.234375 27.2265625 C-38.68330078 26.51145508 -38.13222656 25.79634766 -37.56445312 25.05957031 C-36.17939743 23.23617302 -34.83674366 21.39337909 -33.515625 19.5234375 C-27.2391035 10.73185597 -20.43320229 4.09217417 -10.125 0.3125 C-6.74623665 -0.18437696 -3.41239443 -0.05687324 0 0 Z " fill="#735724" transform="translate(349,128)"/>
<path d="M0 0 C2.3431213 0.25561323 4.67843403 0.59270772 7 1 C7.33 1.66 7.66 2.32 8 3 C7.01 3.495 7.01 3.495 6 4 C7.32 4.33 8.64 4.66 10 5 C10 8.3 10 11.6 10 15 C10.33 11.37 10.66 7.74 11 4 C13.475 4.495 13.475 4.495 16 5 C14.68 4.01 13.36 3.02 12 2 C14.33649747 0.52887196 15.66076611 -0.0189365 18.44921875 0.13671875 C21.85838268 1.2905093 22.4613347 2.73858182 24.125 5.875 C25.82739953 9.03134075 27.3135715 11.59969998 30 14 C29.67 14.66 29.34 15.32 29 16 C26.85318469 15.52525225 24.70756772 15.04508251 22.5625 14.5625 C20.77005859 14.16224609 20.77005859 14.16224609 18.94140625 13.75390625 C16 13 16 13 15 12 C14.90203125 12.56847656 14.8040625 13.13695312 14.703125 13.72265625 C13.63676081 19.22914031 12.01715751 23.2731199 9 28 C8.34 28 7.68 28 7 28 C6.48827906 26.6293189 5.99122508 25.25315925 5.5 23.875 C5.2215625 23.10929687 4.943125 22.34359375 4.65625 21.5546875 C4 19 4 19 4 13 C-0.62 13.66 -5.24 14.32 -10 15 C-2.90178571 3.75 -2.90178571 3.75 0 0 Z " fill="#C99333" transform="translate(240,260)"/>
<path d="M0 0 C2 1.375 2 1.375 4 3 C4 3.66 4 4.32 4 5 C4.77730469 5.23589844 5.55460937 5.47179687 6.35546875 5.71484375 C10.3519892 7.65702281 10.85729123 10.25307231 12.26171875 14.29296875 C14.50938745 22.53442064 12.61865064 27.75383014 8.80078125 35.30078125 C6.82762536 38.25837501 4.99538907 40.089555 2 42 C1.01 41.67 0.02 41.34 -1 41 C1.31 39.02 3.62 37.04 6 35 C5.01 35.66 4.02 36.32 3 37 C-1.09449951 39.04724975 -4.44335826 39.33752902 -9 39 C-9.99 38.34 -10.98 37.68 -12 37 C-11.11957031 36.91363281 -10.23914063 36.82726562 -9.33203125 36.73828125 C-2.1201228 35.96201298 -2.1201228 35.96201298 4.1875 32.6875 C7.60668011 27.61768122 8.23923299 23.79896507 8.125 17.6875 C8.10695313 16.43324219 8.08890625 15.17898438 8.0703125 13.88671875 C8.04710937 12.93410156 8.02390625 11.98148437 8 11 C7.97873047 12.17755859 7.97873047 12.17755859 7.95703125 13.37890625 C7.64469022 20.25885053 7.06205892 25.09613042 2 30 C-2.20411332 33.50342777 -6.72282307 33.66658359 -12 34 C-8.56374913 30.34898345 -4.97091281 27.40953215 -0.8671875 24.52734375 C1.93306566 22.2367601 3.70789812 20.24143301 4.546875 16.67578125 C4.61390625 15.89589844 4.6809375 15.11601562 4.75 14.3125 C4.86601562 13.13107422 4.86601562 13.13107422 4.984375 11.92578125 C4.98953125 11.29027344 4.9946875 10.65476562 5 10 C4.67 9.67 4.34 9.34 4 9 C0.75283938 12.48783514 0.75283938 12.48783514 0 17 C-2 16 -2 16 -3 13 C-5.97 12.505 -5.97 12.505 -9 12 C-8.67 11.34 -8.34 10.68 -8 10 C-6.5459375 10.0309375 -6.5459375 10.0309375 -5.0625 10.0625 C-2.12534105 10.35618499 -2.12534105 10.35618499 -1 9 C-0.76807135 7.48530552 -0.58784762 5.96245438 -0.4375 4.4375 C-0.35371094 3.61121094 -0.26992188 2.78492188 -0.18359375 1.93359375 C-0.12300781 1.29550781 -0.06242187 0.65742188 0 0 Z " fill="#AB7E2E" transform="translate(288,272)"/>
<path d="M0 0 C0.66 0 1.32 0 2 0 C2.66 1.65 3.32 3.3 4 5 C10.40353322 5.2361959 15.84629161 4.823321 22 3 C22 2.01 22 1.02 22 0 C22.66 0 23.32 0 24 0 C24 1.32 24 2.64 24 4 C26.64 3.67 29.28 3.34 32 3 C31.34 5.31 30.68 7.62 30 10 C18.17393215 12.20019867 5.63511547 13.87837182 -6 10 C-7.97991138 6.92294028 -8.20158214 4.6284786 -8 1 C-7.34 1.66 -6.68 2.32 -6 3 C-3.41645782 3.16687448 -3.41645782 3.16687448 -1 3 C-0.67 2.01 -0.34 1.02 0 0 Z " fill="#C79232" transform="translate(238,176)"/>
<path d="M0 0 C0 4.06825292 -1.42478169 4.88924436 -4.25 7.75 C-8.958218 12.38401972 -13.81470364 15.43566715 -19.7265625 18.33203125 C-20.47679687 18.88246094 -21.22703125 19.43289062 -22 20 C-22.44929697 22.63519724 -22.44929697 22.63519724 -22 25 C-26.38585329 25.70173653 -30.55790643 26.10834375 -35 26 C-35 25.34 -35 24.68 -35 24 C-35.66 24 -36.32 24 -37 24 C-37 24.66 -37 25.32 -37 26 C-37.66 26 -38.32 26 -39 26 C-39 25.34 -39 24.68 -39 24 C-42.63 24 -46.26 24 -50 24 C-50 23.67 -50 23.34 -50 23 C-48.43765625 22.70609375 -48.43765625 22.70609375 -46.84375 22.40625 C-33.53223095 19.70232324 -22.18087195 14.69436349 -11 7 C-10.505 7.99 -10.505 7.99 -10 9 C-9.34 9 -8.68 9 -8 9 C-8 8.34 -8 7.68 -8 7 C-7.34 7 -6.68 7 -6 7 C-5.7525 6.401875 -5.505 5.80375 -5.25 5.1875 C-3.83629988 2.71352479 -2.34944617 1.56629745 0 0 Z " fill="#C48F32" transform="translate(302,168)"/>
<path d="M0 0 C7.78647162 0.86264117 13.36604113 5.17790122 18.625 10.8125 C20 13 20 13 20 15 C17.03 15.66 14.06 16.32 11 17 C11 19.31 11 21.62 11 24 C12.32 24.33 13.64 24.66 15 25 C15 23.35 15 21.7 15 20 C15.66 20.33 16.32 20.66 17 21 C16.67 22.65 16.34 24.3 16 26 C14.35 26.33 12.7 26.66 11 27 C8 23.375 8 23.375 8 20 C6.68 19.67 5.36 19.34 4 19 C4.33 18.01 4.66 17.02 5 16 C5.66 16.33 6.32 16.66 7 17 C8.65 15.02 10.3 13.04 12 11 C3.34475534 11.28010501 -1.9388801 11.9388801 -8.25 18.25 C-10.50773305 21.79786621 -11.16363115 24.88785315 -12 29 C-12.33 29 -12.66 29 -13 29 C-13.45690111 20.28503437 -13.45690111 20.28503437 -12 16.1875 C-8.20327693 12.03483415 -4.64927971 9.26828149 1.0859375 8.6875 C4.0734953 8.6875 7.01978758 8.80131917 10 9 C10.99 9 11.98 9 13 9 C8.98745115 5.48901975 4.79016959 3.23462006 0 1 C0 0.67 0 0.34 0 0 Z " fill="#826127" transform="translate(176,153)"/>
<path d="M0 0 C1.71802917 2.57704376 2.36118595 4.02449381 3.1875 6.875 C4.64039745 10.78056096 6.37875653 12.86897049 9.890625 15.09765625 C13.75889099 16.75241448 17.81861786 17.10701892 22 17 C22.66 16.67 23.32 16.34 24 16 C23.360625 15.360625 22.72125 14.72125 22.0625 14.0625 C21.04166667 13.04166667 20.02083333 12.02083333 19 11 C18.01 11.495 18.01 11.495 17 12 C17 11.01 17 10.02 17 9 C18.32 9 19.64 9 21 9 C21.33 7.35 21.66 5.7 22 4 C22.33 4 22.66 4 23 4 C23.66 6.31 24.32 8.62 25 11 C26.11375 11.12375 27.2275 11.2475 28.375 11.375 C32 12 32 12 34 14 C29.73733095 20.29120609 25.41477116 25.49967019 18 28 C17.01 27.67 16.02 27.34 15 27 C15.78246094 26.51789063 16.56492188 26.03578125 17.37109375 25.5390625 C18.88896484 24.59160156 18.88896484 24.59160156 20.4375 23.625 C21.95150391 22.68527344 21.95150391 22.68527344 23.49609375 21.7265625 C26.08011063 20.24183698 26.08011063 20.24183698 27 18 C26.01 18.33 25.02 18.66 24 19 C10.820802 20.32294364 10.820802 20.32294364 5.25 16.25 C2.06273551 13.506181 0.15759509 10.90374863 -0.1953125 6.640625 C-0.17210937 5.85171875 -0.14890625 5.0628125 -0.125 4.25 C-0.10695312 3.45078125 -0.08890625 2.6515625 -0.0703125 1.828125 C-0.04710937 1.22484375 -0.02390625 0.6215625 0 0 Z " fill="#A2772C" transform="translate(163,268)"/>
<path d="M0 0 C2.99240791 0.6050583 5.04920974 1.53466582 7.5625 3.25 C17.30211288 9.44468025 26.7327007 12.12971955 38 14 C38 14.33 38 14.66 38 15 C34.04 15 30.08 15 26 15 C25.67 15.66 25.34 16.32 25 17 C25 16.34 25 15.68 25 15 C24.34 15 23.68 15 23 15 C23 15.66 23 16.32 23 17 C22.34 17 21.68 17 21 17 C21 16.34 21 15.68 21 15 C20.34 15 19.68 15 19 15 C19 15.66 19 16.32 19 17 C15.65747276 17.07427838 13.1964086 17.06546953 10 16 C10 14.35 10 12.7 10 11 C7.03 9.35 4.06 7.7 1 6 C1.33 5.01 1.66 4.02 2 3 C1.34 2.67 0.68 2.34 0 2 C0 1.34 0 0.68 0 0 Z " fill="#C79232" transform="translate(210,177)"/>
<path d="M0 0 C0.66 0.33 1.32 0.66 2 1 C1.09121094 1.94746094 1.09121094 1.94746094 0.1640625 2.9140625 C-5.62346017 9.09335593 -10.64179334 15.50014687 -15.48828125 22.43359375 C-32.32953403 46.50663986 -32.32953403 46.50663986 -45 51 C-47.51215809 51.34866251 -49.45935817 51.27615672 -52 51 C-49 49 -49 49 -46.46875 47.87890625 C-30.53116208 40.81184424 -19.75721779 25.64795888 -11 11 C-9.3777546 9.29006566 -7.70586575 7.62652316 -6 6 C-4.8932261 4.89844673 -3.78906558 3.79426164 -2.6875 2.6875 C-1.800625 1.800625 -0.91375 0.91375 0 0 Z " fill="#C28E31" transform="translate(207,270)"/>
<path d="M0 0 C9 0 9 0 12 2 C12.12738854 7.60509554 12.12738854 7.60509554 11.375 9.9375 C10.87884488 12.66635315 11.61701188 13.84911252 12.9375 16.25 C13.50791016 17.30960937 13.50791016 17.30960937 14.08984375 18.390625 C14.39019531 18.92171875 14.69054687 19.4528125 15 20 C13.12890625 19.75 13.12890625 19.75 11 19 C9.83984375 17.1875 9.83984375 17.1875 8.9375 15 C8.08867362 12.8354427 8.08867362 12.8354427 7 11 C6.01 10.67 5.02 10.34 4 10 C4 13.3 4 16.6 4 20 C2.68 19.67 1.36 19.34 0 19 C0 12.73 0 6.46 0 0 Z " fill="#9F762C" transform="translate(246,329)"/>
<path d="M0 0 C0 0.33 0 0.66 0 1 C-0.68964844 1.14695313 -1.37929688 1.29390625 -2.08984375 1.4453125 C-9.10838314 3.12051943 -14.30223046 5.603042 -20 10 C-20.79792969 10.58394531 -21.59585937 11.16789063 -22.41796875 11.76953125 C-25.55286826 14.47759119 -27.93546055 17.4652217 -30.4375 20.75 C-31.15546753 21.6783667 -31.15546753 21.6783667 -31.88793945 22.62548828 C-35.30217611 27.05085758 -38.67521467 31.50704686 -42 36 C-42.66 35.34 -43.32 34.68 -44 34 C-41.96367335 31.14198974 -39.91996363 28.28933515 -37.875 25.4375 C-37.30523437 24.63763672 -36.73546875 23.83777344 -36.1484375 23.01367188 C-26.66817041 9.81670916 -17.42096743 -0.61126202 0 0 Z " fill="#BF8C31" transform="translate(349,128)"/>
<path d="M0 0 C4.62344891 0.72146126 6.47444465 3.27130985 9.3828125 6.72265625 C11.71296951 10.00401262 12.83434378 13.16019126 14 17 C14.04898437 16.16855469 14.09796875 15.33710938 14.1484375 14.48046875 C14.22320312 13.39378906 14.29796875 12.30710938 14.375 11.1875 C14.44460938 10.10855469 14.51421875 9.02960938 14.5859375 7.91796875 C15 5 15 5 17 2 C17.66 2 18.32 2 19 2 C19.125 7.75 19.125 7.75 18 10 C17.7212082 13.24372049 17.55312781 16.48738099 17.37890625 19.73828125 C17.01716463 22.85224261 16.31075418 25.17153045 15 28 C14.01 28 13.02 28 12 28 C11.92523438 27.17757812 11.85046875 26.35515625 11.7734375 25.5078125 C10.83533232 17.54311558 9.09467812 11.31350064 4 5 C2.66723603 3.99924129 1.33402601 2.99907576 0 2 C0 1.34 0 0.68 0 0 Z " fill="#40331B" transform="translate(287,135)"/>
<path d="M0 0 C8.87405201 -0.78880462 17.28968651 2.61590267 24.125 8.2109375 C33.08297513 16.75833877 39.82873724 27.95563517 47 38 C46.01 38 45.02 38 44 38 C42.30859375 36.26953125 42.30859375 36.26953125 40.4375 33.8125 C39.73367187 32.90371094 39.02984375 31.99492187 38.3046875 31.05859375 C36.71772727 28.95250924 35.14013691 26.84135721 33.5703125 24.72265625 C24.323107 12.32180045 15.570409 3.73923862 0 1 C0 0.67 0 0.34 0 0 Z " fill="#C28E32" transform="translate(151,128)"/>
<path d="M0 0 C0.66 0.33 1.32 0.66 2 1 C-0.97 3.97 -3.94 6.94 -7 10 C-6.34 10 -5.68 10 -5 10 C-5 11.32 -5 12.64 -5 14 C-5.66 14 -6.32 14 -7 14 C-7 14.66 -7 15.32 -7 16 C-7.66 16 -8.32 16 -9 16 C-9.474375 16.495 -9.94875 16.99 -10.4375 17.5 C-12 19 -12 19 -15 19 C-15 19.66 -15 20.32 -15 21 C-17.31 21.33 -19.62 21.66 -22 22 C-22 21.01 -22 20.02 -22 19 C-22.66 18.67 -23.32 18.34 -24 18 C-23.32195312 17.67128906 -22.64390625 17.34257812 -21.9453125 17.00390625 C-13.32342814 12.59743072 -6.77208728 6.8372035 0 0 Z " fill="#40331B" transform="translate(302,170)"/>
<path d="M0 0 C0.33 0 0.66 0 1 0 C1.08636719 0.58007812 1.17273438 1.16015625 1.26171875 1.7578125 C2.24629247 7.2316811 3.61234632 11.34684342 8 15 C10.87663825 16.9204599 13.78605488 18.73448926 16.76953125 20.484375 C17.50558594 20.98453125 18.24164063 21.4846875 19 22 C19 22.66 19 23.32 19 24 C13.01725899 24.76375417 9.95050714 23.13959137 5.015625 19.80078125 C1.5842841 16.73518405 0.11330257 14.28862787 -0.29296875 9.66796875 C-0.25816406 8.51941406 -0.22335938 7.37085938 -0.1875 6.1875 C-0.16042969 5.02605469 -0.13335937 3.86460937 -0.10546875 2.66796875 C-0.07066406 1.78753906 -0.03585938 0.90710938 0 0 Z " fill="#C59032" transform="translate(205,282)"/>
<path d="M0 0 C0.99 0 1.98 0 3 0 C3 2.64 3 5.28 3 8 C6.3 8 9.6 8 13 8 C13 5.36 13 2.72 13 0 C13.99 0 14.98 0 16 0 C16.33 6.27 16.66 12.54 17 19 C15.68 19 14.36 19 13 19 C13 15.7 13 12.4 13 9 C9.7 9 6.4 9 3 9 C3.33 12.3 3.66 15.6 4 19 C2.68 18.67 1.36 18.34 0 18 C0 12.06 0 6.12 0 0 Z " fill="#B5852F" transform="translate(183,330)"/>
<path d="M0 0 C0.99 0 1.98 0 3 0 C3 2.64 3 5.28 3 8 C4.98 7.34 6.96 6.68 9 6 C8.49396008 3.83125748 8.00016187 2.00032373 7 0 C8.32 0.33 9.64 0.66 11 1 C11.625 3.25 11.625 3.25 12 6 C11.6390625 6.61875 11.278125 7.2375 10.90625 7.875 C9.73288381 10.00643625 9.73288381 10.00643625 10.6796875 12.359375 C11.07414062 13.14828125 11.46859375 13.9371875 11.875 14.75 C12.26429688 15.54921875 12.65359375 16.3484375 13.0546875 17.171875 C13.36664063 17.77515625 13.67859375 18.3784375 14 19 C9.75335803 17.18995588 9.04203304 15.08406609 7 11 C5.68 10.34 4.36 9.68 3 9 C3.33 12.3 3.66 15.6 4 19 C2.68 19 1.36 19 0 19 C0 12.73 0 6.46 0 0 Z " fill="#A4792C" transform="translate(276,330)"/>
<path d="M0 0 C-1.49193433 4.02822269 -3.70374621 5.25049553 -7.375 7.3125 C-12.43870722 10.42097996 -14.82792367 12.47107844 -17 18 C-17.5282765 20.36797623 -17.80172265 22.57110247 -18 25 C-18.33 25 -18.66 25 -19 25 C-19.624 13.31733333 -19.624 13.31733333 -17.3125 8.4375 C-12.22748939 3.07762395 -7.65565508 0 0 0 Z " fill="#C89333" transform="translate(224,143)"/>
<path d="M0 0 C7.14743142 0.83410668 12.2573839 2.36814338 17 8 C19.22978009 11.41112054 19.2124258 14.22841323 19.125 18.25 C19.10695313 19.32765625 19.08890625 20.4053125 19.0703125 21.515625 C19.04710937 22.33546875 19.02390625 23.1553125 19 24 C18.67 24 18.34 24 18 24 C17.90203125 23.40832031 17.8040625 22.81664062 17.703125 22.20703125 C17.55359375 21.41683594 17.4040625 20.62664062 17.25 19.8125 C17.11078125 19.03519531 16.9715625 18.25789063 16.828125 17.45703125 C14.96763652 11.93699703 11.18289596 9.22310872 6.3125 6.375 C1.10970927 3.32912781 1.10970927 3.32912781 0 0 Z " fill="#C89233" transform="translate(276,143)"/>
<path d="M0 0 C0.33 0 0.66 0 1 0 C1.86041662 12.71504564 1.86041662 12.71504564 -1.1875 17.125 C-6.08860218 22.64044646 -10.88412397 23.55041306 -18 24 C-14.56374913 20.34898345 -10.97091281 17.40953215 -6.8671875 14.52734375 C-3.25142875 11.56968335 -1.68501957 8.81394855 -0.8125 4.25 C-0.65394531 3.45078125 -0.49539063 2.6515625 -0.33203125 1.828125 C-0.16767578 0.92320312 -0.16767578 0.92320312 0 0 Z " fill="#C89232" transform="translate(294,282)"/>
<path d="M0 0 C-0.625 2.375 -0.625 2.375 -2 5 C-4.77936301 6.23527245 -7.3063565 6.89301431 -10.3046875 7.35546875 C-13.60463737 8.1445872 -16.30062217 9.50691474 -19.3125 11.0625 C-20.38113281 11.61035156 -21.44976562 12.15820312 -22.55078125 12.72265625 C-23.35902344 13.14417969 -24.16726562 13.56570313 -25 14 C-25.33 12.68 -25.66 11.36 -26 10 C-25.34 10 -24.68 10 -24 10 C-24 9.34 -24 8.68 -24 8 C-22.23244474 7.15973604 -20.46082737 6.32801278 -18.6875 5.5 C-17.70136719 5.0359375 -16.71523437 4.571875 -15.69921875 4.09375 C-13 3 -13 3 -10 3 C-9.67 2.67 -9.34 2.34 -9 2 C-8.34 2 -7.68 2 -7 2 C-6.67 1.67 -6.34 1.34 -6 1 C-3.91734618 0.39535857 -2.17384564 0 0 0 Z " fill="#B1822F" transform="translate(229,255)"/>
<path d="M0 0 C2.4375 0.75 2.4375 0.75 4.4375 2.75 C3.86057692 9.32692308 3.86057692 9.32692308 2.4375 10.75 C-0.4375 11.0625 -0.4375 11.0625 -3.5625 10.75 C-5.5 9.0625 -5.5 9.0625 -6.5625 6.75 C-6.4375 4.125 -6.4375 4.125 -5.5625 1.75 C-2.5625 -0.25 -2.5625 -0.25 0 0 Z " fill="#3E321B" transform="translate(282.5625,358.25)"/>
<path d="M0 0 C0.680625 0.680625 1.36125 1.36125 2.0625 2.0625 C2.52527344 2.52011719 2.98804688 2.97773438 3.46484375 3.44921875 C4.49895655 4.49385687 5.51193076 5.55979961 6.50390625 6.64453125 C12.90704735 13.47969151 20.70132848 19.1402657 30 21 C30 21.33 30 21.66 30 22 C22.3133459 22.87018726 17.29709249 20.31722061 11 16 C5.75233834 11.66345155 2.03692514 7.07385027 -1 1 C-0.67 0.67 -0.34 0.34 0 0 Z " fill="#C79132" transform="translate(316,299)"/>
<path d="M0 0 C2.12696816 0.20065737 4.25369361 0.4146417 6.37060547 0.70263672 C10.92666334 1.21789006 15.48325876 1.10392668 20.0625 1.0625 C21.50399414 1.05573242 21.50399414 1.05573242 22.97460938 1.04882812 C25.31647422 1.03717706 27.65820181 1.02082025 30 1 C29.67 1.99 29.34 2.98 29 4 C19.23470206 7.59774135 7.58436302 5.51774444 -2 2 C-1.34 1.34 -0.68 0.68 0 0 Z " fill="#221E16" transform="translate(232,186)"/>
<path d="M0 0 C2 2 2 2 2.0625 5.5625 C2.041875 6.696875 2.02125 7.83125 2 9 C3.18424326 10.41577477 3.18424326 10.41577477 6.5625 10.0625 C8.2640625 10.0315625 8.2640625 10.0315625 10 10 C10 10.66 10 11.32 10 12 C7.69 12.33 5.38 12.66 3 13 C2.67 14.32 2.34 15.64 2 17 C1.34 16.34 0.68 15.68 0 15 C0 14.34 0 13.68 0 13 C-0.96113866 11.63838689 -1.95884159 10.30144802 -3 9 C-3.103125 10.11375 -3.20625 11.2275 -3.3125 12.375 C-3.539375 13.57125 -3.76625 14.7675 -4 16 C-4.99 16.66 -5.98 17.32 -7 18 C-8.19876651 12.55106131 -7.91360308 9.77830905 -5 5 C-4.34 5 -3.68 5 -3 5 C-2.690625 4.360625 -2.38125 3.72125 -2.0625 3.0625 C-1 1 -1 1 0 0 Z " fill="#916C29" transform="translate(211,272)"/>
<path d="M0 0 C-2.35953094 2.35953094 -3.77895617 2.49141413 -7 3 C-5.68 3.99 -4.36 4.98 -3 6 C-3.33 6.66 -3.66 7.32 -4 8 C-5.98 7.01 -7.96 6.02 -10 5 C-10 8.63 -10 12.26 -10 16 C-10.66 16.33 -11.32 16.66 -12 17 C-12 13.37 -12 9.74 -12 6 C-14.31 6.33 -16.62 6.66 -19 7 C-17.36587557 5.29159719 -16.13093906 4.06546953 -14 3 C-16.31 2.34 -18.62 1.68 -21 1 C-21 0.67 -21 0.34 -21 0 C-13.87028851 -1.25818438 -7.18050184 -0.71148265 0 0 Z " fill="#302818" transform="translate(261,259)"/>
<path d="M0 0 C1.485 0.99 1.485 0.99 3 2 C3.6875 5.625 3.6875 5.625 4 9 C5.32 7.35 6.64 5.7 8 4 C7.67 3.34 7.34 2.68 7 2 C7.99 2 8.98 2 10 2 C10.33 3.98 10.66 5.96 11 8 C10.34 8 9.68 8 9 8 C9 11.3 9 14.6 9 18 C8.01 18 7.02 18 6 18 C4.4296875 16.390625 4.4296875 16.390625 2.875 14.25 C2.35679687 13.55390625 1.83859375 12.8578125 1.3046875 12.140625 C-1.31345685 7.84498697 -0.99523826 4.86560926 0 0 Z " fill="#785A25" transform="translate(204,159)"/>
<path d="M0 0 C0.66 0.66 1.32 1.32 2 2 C1.20335937 2.02578125 0.40671875 2.0515625 -0.4140625 2.078125 C-8.26664872 2.49845808 -12.57893988 3.57893988 -18.25 9.25 C-20.50773305 12.79786621 -21.16363115 15.88785315 -22 20 C-22.33 20 -22.66 20 -23 20 C-23.45690111 11.28503437 -23.45690111 11.28503437 -22 7.1875 C-15.72482341 0.32402561 -9.21865505 -1.34734189 0 0 Z " fill="#C08D31" transform="translate(186,162)"/>
<path d="M0 0 C0 0.66 0 1.32 0 2 C-0.53625 2.515625 -1.0725 3.03125 -1.625 3.5625 C-8.85542562 10.98319998 -11.07867241 17.72243193 -12 28 C-14.41816448 25.58183552 -14.34788063 24.83173174 -14.4375 21.5 C-14.27402819 13.9585004 -10.98504351 7.81719633 -5.875 2.375 C-3 0 -3 0 0 0 Z " fill="#4A3A1D" transform="translate(213,135)"/>
<path d="M0 0 C0.33 0.66 0.66 1.32 1 2 C0.566875 3.2065625 0.566875 3.2065625 0.125 4.4375 C-1.39231664 9.24233603 -1.66139275 13.99217705 -2 19 C-2.33 19 -2.66 19 -3 19 C-3.33 17.35 -3.66 15.7 -4 14 C-4.04898438 14.85464844 -4.09796875 15.70929688 -4.1484375 16.58984375 C-4.22320312 17.69457031 -4.29796875 18.79929687 -4.375 19.9375 C-4.47941406 21.59072266 -4.47941406 21.59072266 -4.5859375 23.27734375 C-4.72257813 24.17582031 -4.85921875 25.07429688 -5 26 C-5.66 26.33 -6.32 26.66 -7 27 C-7 7.625 -7 7.625 -3.5 3.8125 C-2.8503125 3.09707031 -2.200625 2.38164062 -1.53125 1.64453125 C-1.0259375 1.10183594 -0.520625 0.55914062 0 0 Z " fill="#4E3D1E" transform="translate(203,277)"/>
<path d="M0 0 C0.66 0 1.32 0 2 0 C1.67 1.32 1.34 2.64 1 4 C1.66 3.67 2.32 3.34 3 3 C5.875 2.6875 5.875 2.6875 9 3 C11.1875 5 11.1875 5 13 7 C13.99 7 14.98 7 16 7 C15.67 7.99 15.34 8.98 15 10 C14.34 10 13.68 10 13 10 C12.34 11.65 11.68 13.3 11 15 C10.67 15 10.34 15 10 15 C9.814375 13.2984375 9.814375 13.2984375 9.625 11.5625 C9.41875 10.386875 9.2125 9.21125 9 8 C5.83598119 6.41799059 2.46125163 6.93831433 -1 7 C-1.99 7 -2.98 7 -4 7 C-2.79618552 4.50638429 -1.54571278 2.31856917 0 0 Z " fill="#A4792C" transform="translate(304,163)"/>
<path d="M0 0 C0.33 0 0.66 0 1 0 C1.37233816 4.65422701 1.46507989 8.05195253 -0.625 12.3125 C-4.32277036 16.49681909 -6.66159782 18.78693374 -12.4296875 19.3125 C-16.00038769 19.37091636 -19.44944444 19.39147151 -23 19 C-23.66 18.34 -24.32 17.68 -25 17 C-23.948125 17.06960938 -23.948125 17.06960938 -22.875 17.140625 C-16.35438077 17.38869204 -11.3044615 17.05045169 -6 13 C-2.56161949 8.9282336 -1.21859146 5.07746443 0 0 Z " fill="#C49032" transform="translate(336,268)"/>
<path d="M0 0 C2.1945022 2.50800251 3.34265422 4.81686619 4.375 7.9375 C5.78452868 11.95094745 7.90770525 14.06231998 11 17 C12.8125 20.3125 12.8125 20.3125 14 23 C11.28325638 22.92009578 9.51364367 22.44173356 7.4375 20.65625 C2.7606546 15.51172006 -0.1448769 10.04701873 -0.1875 3 C-0.125625 2.01 -0.06375 1.02 0 0 Z " fill="#4E3C1E" transform="translate(199,291)"/>
<path d="M0 0 C1.71802917 2.57704376 2.36118595 4.02449381 3.1875 6.875 C4.6361799 10.75717669 6.33256032 12.80999014 9.81640625 15.03515625 C14.01003575 16.88815533 18.47705241 17.45201177 23 18 C23 18.33 23 18.66 23 19 C10.45434065 20.03272196 10.45434065 20.03272196 5.3125 16.25 C2.07889576 13.50801439 0.1607323 10.94164616 -0.1953125 6.640625 C-0.17210937 5.85171875 -0.14890625 5.0628125 -0.125 4.25 C-0.10695312 3.45078125 -0.08890625 2.6515625 -0.0703125 1.828125 C-0.04710937 1.22484375 -0.02390625 0.6215625 0 0 Z " fill="#C38F32" transform="translate(163,268)"/>
<path d="M0 0 C0.66 0.33 1.32 0.66 2 1 C2.81856781 9.18567812 0.5592875 15.16601374 -4 22 C-6.51953125 24.41796875 -6.51953125 24.41796875 -9 26 C-9.99 25.67 -10.98 25.34 -12 25 C-11.52949219 24.64808594 -11.05898438 24.29617188 -10.57421875 23.93359375 C-2.29541402 17.36882727 -1.40686254 10.07975631 0 0 Z " fill="#4F3D1E" transform="translate(299,288)"/>
<path d="M0 0 C4.85963179 0.60745397 8.7405518 2.72758967 13 5 C13 5.99 13 6.98 13 8 C13.66 8 14.32 8 15 8 C15 8.99 15 9.98 15 11 C11.10391502 9.51095825 7.40902982 7.75621287 3.6875 5.875 C2.61886719 5.33617187 1.55023438 4.79734375 0.44921875 4.2421875 C-0.76314453 3.62730469 -0.76314453 3.62730469 -2 3 C-1.34 2.67 -0.68 2.34 0 2 C0 1.34 0 0.68 0 0 Z " fill="#AF812E" transform="translate(282,258)"/>
<path d="M0 0 C0.66 0 1.32 0 2 0 C2 0.66 2 1.32 2 2 C2.71542969 2.27585938 3.43085938 2.55171875 4.16796875 2.8359375 C6.95738855 3.98248522 9.62290358 5.26227115 12.3125 6.625 C13.63701172 7.29402344 13.63701172 7.29402344 14.98828125 7.9765625 C15.98408203 8.48316406 15.98408203 8.48316406 17 9 C16.67 10.32 16.34 11.64 16 13 C15.34 13 14.68 13 14 13 C14 12.34 14 11.68 14 11 C13.071875 10.896875 12.14375 10.79375 11.1875 10.6875 C7.88080243 9.97429072 7.12526242 9.44405178 5 7 C4.34 7 3.68 7 3 7 C3 6.34 3 5.68 3 5 C2.34 5 1.68 5 1 5 C0.67 3.35 0.34 1.7 0 0 Z " fill="#9F762B" transform="translate(202,179)"/>
<path d="M0 0 C0.66 0 1.32 0 2 0 C1.5018993 4.20137113 0.48667148 5.88009742 -2.6875 8.625 C-7.44046176 13.09535322 -10.1733329 18.17535265 -13 24 C-14 21 -14 21 -12.55859375 17.890625 C-11.86448308 16.66964713 -11.15665526 15.4563964 -10.4375 14.25 C-9.88811768 13.31099854 -9.88811768 13.31099854 -9.32763672 12.35302734 C-6.61181726 7.80536104 -3.76047748 3.76047748 0 0 Z " fill="#AC7F2E" transform="translate(321,127)"/>
<path d="M0 0 C5.40985374 -0.52779061 8.7856367 0.7647312 13 4 C16.75601497 8.24066206 16.31568351 12.63338037 16 18 C15.70738281 17.4121875 15.41476562 16.824375 15.11328125 16.21875 C11.33668879 8.69206749 8.32210203 3.85329212 0 1 C0 0.67 0 0.34 0 0 Z " fill="#C28E32" transform="translate(321,163)"/>
<path d="M0 0 C3.3125 -0.25 3.3125 -0.25 7 0 C9 1.75 9 1.75 10 4 C9.75203633 6.16968209 9.55766393 7.44233607 8 9 C6.33382885 9.04063832 4.66611905 9.042721 3 9 C3 6.36 3 3.72 3 1 C2.01 0.67 1.02 0.34 0 0 Z " fill="#241F16" transform="translate(276,329)"/>
<path d="M0 0 C0.33 1.32 0.66 2.64 1 4 C2.32 4 3.64 4 5 4 C5 4.99 5 5.98 5 7 C4.34 6.67 3.68 6.34 3 6 C2.02985092 6.97014908 1.13765176 8.016339 0.25 9.0625 C-2 11 -2 11 -4.5 11.3125 C-6.74490919 11.03188635 -8.83246036 10.64223397 -11 10 C-10.67 9.01 -10.34 8.02 -10 7 C-5.545 6.505 -5.545 6.505 -1 6 C-0.67 4.02 -0.34 2.04 0 0 Z " fill="#AF812E" transform="translate(315,273)"/>
<path d="M0 0 C3 1 3 1 4.7890625 4.52734375 C5.411979 5.99279476 6.02352405 7.46311935 6.625 8.9375 C7.24208561 10.40499077 7.85926868 11.87244055 8.4765625 13.33984375 C8.97929687 14.54769531 9.48203125 15.75554687 10 17 C10.33 17.66 10.66 18.32 11 19 C9.68 19 8.36 19 7 19 C6.01761592 16.58459694 5.03899782 14.16778178 4.0625 11.75 C3.64581055 10.72712891 3.64581055 10.72712891 3.22070312 9.68359375 C1.93024244 6.48076362 0.78199956 3.36162466 0 0 Z " fill="#BB8930" transform="translate(221,330)"/>
<path d="M0 0 C3 1 3 1 4.1875 3.375 C5 6 5 6 5 9 C2.69 9 0.38 9 -2 9 C-2.66 10.32 -3.32 11.64 -4 13 C-3.27991594 8.39146203 -1.68704061 4.32762591 0 0 Z " fill="#3A2F1A" transform="translate(220,333)"/>
<path d="M0 0 C-3.8526243 6.08865722 -8.04232349 10.57475276 -15 13 C-15.99 12.67 -16.98 12.34 -18 12 C-17.21753906 11.51789063 -16.43507812 11.03578125 -15.62890625 10.5390625 C-14.61699219 9.90742188 -13.60507813 9.27578125 -12.5625 8.625 C-11.55316406 7.99851562 -10.54382813 7.37203125 -9.50390625 6.7265625 C-6.91988937 5.24183698 -6.91988937 5.24183698 -6 3 C-7.32 3.33 -8.64 3.66 -10 4 C-10.33 3.34 -10.66 2.68 -11 2 C-9.73392393 1.46770674 -8.46189588 0.94955456 -7.1875 0.4375 C-6.47980469 0.14746094 -5.77210938 -0.14257812 -5.04296875 -0.44140625 C-3 -1 -3 -1 0 0 Z " fill="#674E22" transform="translate(196,283)"/>
<path d="M0 0 C0.66 0 1.32 0 2 0 C2.125 5.75 2.125 5.75 1 8 C0.72300281 11.34155338 0.55299296 14.68285874 0.37890625 18.03125 C0 21 0 21 -2 23 C-2.0580476 19.72924117 -2.09361165 16.45861476 -2.125 13.1875 C-2.14175781 12.25873047 -2.15851563 11.32996094 -2.17578125 10.37304688 C-2.18222656 9.48037109 -2.18867188 8.58769531 -2.1953125 7.66796875 C-2.20578613 6.84578857 -2.21625977 6.0236084 -2.22705078 5.17651367 C-2 3 -2 3 0 0 Z " fill="#946E2A" transform="translate(304,137)"/>
<path d="M0 0 C3.11626499 2.9647141 5.59496519 6.32354458 8.18359375 9.74609375 C9.96875183 12.06546861 9.96875183 12.06546861 12.22265625 14.09765625 C14 16 14 16 14 19 C10.41614211 18.39852326 10.073418 18.0953817 7.67578125 14.98046875 C6.87567735 13.72392084 6.08829933 12.45919741 5.3125 11.1875 C4.90966797 10.55779297 4.50683594 9.92808594 4.09179688 9.27929688 C2.1728413 6.21603949 0.74970971 3.52773372 0 0 Z " fill="#BB8930" transform="translate(309,303)"/>
<path d="M0 0 C0.66 1.32 1.32 2.64 2 4 C1.34 4 0.68 4 0 4 C-0.474375 4.495 -0.94875 4.99 -1.4375 5.5 C-3 7 -3 7 -6 7 C-6 7.66 -6 8.32 -6 9 C-7.65 9.33 -9.3 9.66 -11 10 C-11.33 8.68 -11.66 7.36 -12 6 C-8.04 4.02 -4.08 2.04 0 0 Z " fill="#A4792C" transform="translate(293,182)"/>
<path d="M0 0 C7.78647162 0.86264117 13.36604113 5.17790122 18.625 10.8125 C20 13 20 13 20 15 C17.36 14.34 14.72 13.68 12 13 C12.33 12.01 12.66 11.02 13 10 C9.15080717 5.66965806 5.27710354 3.3439244 0 1 C0 0.67 0 0.34 0 0 Z " fill="#684F22" transform="translate(176,153)"/>
<path d="M0 0 C0.33 0.66 0.66 1.32 1 2 C-0.17972781 4.21050009 -1.39842704 6.27358177 -2.75 8.375 C-3.1109375 8.9525 -3.471875 9.53 -3.84375 10.125 C-4.87579005 11.76280269 -5.93727417 13.38194 -7 15 C-7.52078125 15.79664063 -8.0415625 16.59328125 -8.578125 17.4140625 C-9.04734375 17.93742187 -9.5165625 18.46078125 -10 19 C-10.99 19 -11.98 19 -13 19 C-12.45757446 14.95051275 -10.38553956 12.96151322 -7.625 10.0625 C-4.59594954 6.87065041 -2.13738084 3.85418029 0 0 Z " fill="#C89233" transform="translate(190,303)"/>
<path d="M0 0 C0.99 0.33 1.98 0.66 3 1 C4.24911667 8.65083958 4.09053426 16.27440986 4 24 C1.96860324 20.60337304 1.66196328 17.73344364 1.4375 13.8125 C1.53210522 10.08992543 1.53210522 10.08992543 0 7 C-0.04092937 4.66702567 -0.04241723 2.33294775 0 0 Z " fill="#906B29" transform="translate(194,137)"/>
<path d="M0 0 C0.66 0.33 1.32 0.66 2 1 C1.34773438 1.70125 0.69546875 2.4025 0.0234375 3.125 C-4.9639942 8.53908515 -9.75244137 13.97399202 -14 20 C-14.66 19.67 -15.32 19.34 -16 19 C-13.11027781 14.04443385 -10.23965337 9.92943483 -6 6 C-4.89190162 4.8997791 -3.78778562 3.79553411 -2.6875 2.6875 C-1.800625 1.800625 -0.91375 0.91375 0 0 Z " fill="#C79232" transform="translate(207,270)"/>
<path d="M0 0 C0.99 0 1.98 0 3 0 C7.12206799 6.29718136 8.82703776 11.46828078 9 19 C7.68 18.67 6.36 18.34 5 18 C5.1546875 16.329375 5.1546875 16.329375 5.3125 14.625 C5.3625998 9.03386248 2.71971933 4.74008226 0 0 Z " fill="#C89333" transform="translate(304,330)"/>
<path d="M0 0 C3.78557181 1.48748738 5.41567193 3.55349866 7.6875 6.875 C8.28949219 7.73867187 8.89148438 8.60234375 9.51171875 9.4921875 C10.84851121 11.74473543 11.55417894 13.44395924 12 16 C8.73587642 12.82654652 5.81870766 9.57036304 3 6 C2.4225 5.46375 1.845 4.9275 1.25 4.375 C0 3 0 3 0 0 Z " fill="#BD8B31" transform="translate(177,127)"/>
<path d="M0 0 C1.98 0.66 3.96 1.32 6 2 C6.042721 3.66611905 6.04063832 5.33382885 6 7 C5 8 5 8 2.4375 8.0625 C1.633125 8.041875 0.82875 8.02125 0 8 C0 5.36 0 2.72 0 0 Z " fill="#181714" transform="translate(250,330)"/>
<path d="M0 0 C0 1.32 0 2.64 0 4 C-6.625 5 -6.625 5 -10 5 C-10.33 4.01 -10.66 3.02 -11 2 C-9.73392393 1.46770674 -8.46189588 0.94955456 -7.1875 0.4375 C-6.47980469 0.14746094 -5.77210938 -0.14257812 -5.04296875 -0.44140625 C-3 -1 -3 -1 0 0 Z " fill="#A67A2D" transform="translate(280,189)"/>
<path d="M0 0 C0.66 0.33 1.32 0.66 2 1 C2.09991051 4.49686782 2.11154284 7.66537148 1 11 C-3.10810811 15 -3.10810811 15 -7 15 C-6.67 13.68 -6.34 12.36 -6 11 C-6 11.66 -6 12.32 -6 13 C-3.86124923 11.98239527 -3.86124923 11.98239527 -2 10 C-1.83333333 6.5 -1.83333333 6.5 -2 3 C-1.34 2.01 -0.68 1.02 0 0 Z " fill="#B3842F" transform="translate(235,161)"/>
<path d="M0 0 C2.475 0.495 2.475 0.495 5 1 C5.625 2.875 5.625 2.875 6 5 C5.34 5.66 4.68 6.32 4 7 C3.01 7 2.02 7 1 7 C0.67 8.32 0.34 9.64 0 11 C0 7.37 0 3.74 0 0 Z " fill="#5F4820" transform="translate(232,358)"/>
<path d="M0 0 C0.99 0 1.98 0 3 0 C2.67 0.99 2.34 1.98 2 3 C2.495 3.350625 2.99 3.70125 3.5 4.0625 C5.73063966 6.94374289 5.19980621 9.47009026 5 13 C4.67 13 4.34 13 4 13 C3.9175 12.21625 3.835 11.4325 3.75 10.625 C3.25587877 7.9244579 3.25587877 7.9244579 1.25 6.625 C-1.58260115 5.83816635 -3.22720125 6.05141095 -6 7 C-6.66 7.99 -7.32 8.98 -8 10 C-7.125 5.125 -7.125 5.125 -6 4 C-4.00041636 3.95919217 -1.99954746 3.95745644 0 4 C0 2.68 0 1.36 0 0 Z " fill="#AC7F2E" transform="translate(286,161)"/>
<path d="M0 0 C3.73724772 0.55153215 5.2235991 1.96149761 7.625 4.8125 C8.21539062 5.49957031 8.80578125 6.18664062 9.4140625 6.89453125 C10.93948372 8.91965942 12.12972891 10.61845169 13 13 C12.625 15.25 12.625 15.25 12 17 C11.2575 15.2365625 11.2575 15.2365625 10.5 13.4375 C8.34193626 9.03536273 5.42816889 6.44181136 1.609375 3.4453125 C1.07828125 2.96835938 0.5471875 2.49140625 0 2 C0 1.34 0 0.68 0 0 Z " fill="#A67A2D" transform="translate(287,135)"/>
<path d="M0 0 C0 0.66 0 1.32 0 2 C-1.21060834 3.08719681 -2.46990544 4.12054624 -3.75 5.125 C-7.9678585 8.67727445 -9.87328864 11.94906051 -12 17 C-12.87056734 14.58713125 -13.18561853 13.44460058 -12.1796875 11.03515625 C-4.88118812 0 -4.88118812 0 0 0 Z " fill="#AC7F2E" transform="translate(213,135)"/>
<path d="M0 0 C5.28 0 10.56 0 16 0 C16 0.66 16 1.32 16 2 C10.39436958 2.82622671 5.57710648 3.06795656 0 2 C0 1.34 0 0.68 0 0 Z " fill="#5D4720" transform="translate(242,181)"/>
<path d="M0 0 C0.66 0 1.32 0 2 0 C2 1.32 2 2.64 2 4 C4.64 3.67 7.28 3.34 10 3 C9 6 9 6 7 7 C4.3276379 7.13415472 1.67749512 7.04318541 -1 7 C-0.67 4.69 -0.34 2.38 0 0 Z " fill="#715524" transform="translate(260,176)"/>
<path d="M0 0 C1.32 0 2.64 0 4 0 C2.49087042 4.98012761 -0.55661849 8.24259942 -4 12 C-4 8.76344816 -3.3449153 7.21247361 -2 4.3125 C-1.62875 3.50425781 -1.2575 2.69601563 -0.875 1.86328125 C-0.58625 1.24839844 -0.2975 0.63351563 0 0 Z " fill="#211D16" transform="translate(300,162)"/>
<path d="M0 0 C3.15391828 0.29338775 4.42746287 1.07366795 6.6875 3.25 C6.6875 3.91 6.6875 4.57 6.6875 5.25 C3.375 5.5 3.375 5.5 -0.3125 5.25 C-2.25 3.25 -2.25 3.25 -3.3125 1.25 C-2.3125 0.25 -2.3125 0.25 0 0 Z " fill="#BF8C31" transform="translate(329.3125,295.75)"/>
<path d="M0 0 C0 0.99 0 1.98 0 3 C-3.4352048 5.29013653 -4.985331 5.17842973 -9 5 C-6.81610567 0.16423399 -5.20641855 -0.13701101 0 0 Z " fill="#C08C31" transform="translate(173,296)"/>
<path d="M0 0 C2.64 0 5.28 0 8 0 C8.66 1.32 9.32 2.64 10 4 C6.6868604 5.04127245 5.39801692 5.18574123 2.1875 3.6875 C1.465625 3.130625 0.74375 2.57375 0 2 C0 1.34 0 0.68 0 0 Z " fill="#C08D31" transform="translate(164,149)"/>
<path d="M0 0 C0 0.99 0 1.98 0 3 C-4.36232584 6.91105076 -8.25964946 7.30751878 -14 7 C-14.99 6.34 -15.98 5.68 -17 5 C-16.10796875 4.89042969 -15.2159375 4.78085937 -14.296875 4.66796875 C-13.12640625 4.50941406 -11.9559375 4.35085938 -10.75 4.1875 C-9.58984375 4.03667969 -8.4296875 3.88585937 -7.234375 3.73046875 C-4.01605334 3.00362557 -2.41668345 2.18338975 0 0 Z " fill="#A2772C" transform="translate(293,304)"/>
<path d="M0 0 C0.66 0 1.32 0 2 0 C2 0.99 2 1.98 2 3 C2.66 3 3.32 3 4 3 C3.67 4.32 3.34 5.64 3 7 C1.68 7.33 0.36 7.66 -1 8 C-1.66 6.68 -2.32 5.36 -3 4 C-1.625 2 -1.625 2 0 0 Z " fill="#B3832F" transform="translate(244,160)"/>
<path d="M0 0 C2.64 0 5.28 0 8 0 C5.8125 2.5625 5.8125 2.5625 3 5 C0.1875 4.8125 0.1875 4.8125 -2 4 C-1.34 2.68 -0.68 1.36 0 0 Z " fill="#C38F32" transform="translate(328,149)"/>
<path d="M0 0 C0.99 0.33 1.98 0.66 3 1 C0.32461209 3.28194852 -2.06733462 5.03237241 -5.25 6.5625 C-8.30353684 7.75352145 -8.30353684 7.75352145 -9 11 C-9.33 10.01 -9.66 9.02 -10 8 C-10.66 7.67 -11.32 7.34 -12 7 C-11.21753906 6.57847656 -10.43507813 6.15695313 -9.62890625 5.72265625 C-8.61699219 5.17480469 -7.60507812 4.62695312 -6.5625 4.0625 C-5.55316406 3.51722656 -4.54382813 2.97195312 -3.50390625 2.41015625 C-1.13329507 1.22300532 -1.13329507 1.22300532 0 0 Z " fill="#372C1A" transform="translate(290,181)"/>
<path d="M0 0 C0.66 0 1.32 0 2 0 C0.40956621 5.08938811 -2.7446951 8.87456643 -6 13 C-6.66 12.34 -7.32 11.68 -8 11 C-6.71632558 9.16106176 -5.42283239 7.32897375 -4.125 5.5 C-3.04605469 3.96859375 -3.04605469 3.96859375 -1.9453125 2.40625 C-1.30335938 1.6121875 -0.66140625 0.818125 0 0 Z " fill="#C38F32" transform="translate(313,151)"/>
<path d="M0 0 C0.7425 1.0209375 0.7425 1.0209375 1.5 2.0625 C4.67198797 5.78958586 8.26389901 8.85333242 12 12 C11.01 12.33 10.02 12.66 9 13 C4.96783355 10.1438821 2.14843613 7.53558738 0 3 C0 2.01 0 1.02 0 0 Z " fill="#B5852F" transform="translate(201,301)"/>
<path d="M0 0 C0.66 0 1.32 0 2 0 C2.33 2.31 2.66 4.62 3 7 C-3.75 7.125 -3.75 7.125 -6 6 C-6 5.34 -6 4.68 -6 4 C-4.35 3.67 -2.7 3.34 -1 3 C-0.67 2.01 -0.34 1.02 0 0 Z " fill="#694F22" transform="translate(238,176)"/>
<path d="M0 0 C0.96808594 -0.01417969 1.93617188 -0.02835938 2.93359375 -0.04296875 C5.5625 0.1875 5.5625 0.1875 8.5625 2.1875 C7.65886719 2.24808594 6.75523437 2.30867187 5.82421875 2.37109375 C4.64472656 2.45488281 3.46523437 2.53867188 2.25 2.625 C1.07824219 2.70621094 -0.09351563 2.78742188 -1.30078125 2.87109375 C-4.46340958 3.0742371 -4.46340958 3.0742371 -7.4375 4.1875 C-7.4375 3.1975 -7.4375 2.2075 -7.4375 1.1875 C-4.84996844 -0.10626578 -2.88791015 0.01917603 0 0 Z " fill="#A3782C" transform="translate(217.4375,138.8125)"/>
<path d="M0 0 C0.33 0.66 0.66 1.32 1 2 C2.32 1.67 3.64 1.34 5 1 C5 1.66 5 2.32 5 3 C1.04 4.98 1.04 4.98 -3 7 C-3.33 5.68 -3.66 4.36 -4 3 C-3.34 3 -2.68 3 -2 3 C-2 2.34 -2 1.68 -2 1 C-1.34 0.67 -0.68 0.34 0 0 Z " fill="#7E5E26" transform="translate(207,262)"/>
<path d="M0 0 C-0.625 2.375 -0.625 2.375 -2 5 C-5.125 6.3125 -5.125 6.3125 -8 7 C-8.33 5.35 -8.66 3.7 -9 2 C-8.34 2 -7.68 2 -7 2 C-6.67 1.67 -6.34 1.34 -6 1 C-3.91734618 0.39535857 -2.17384564 0 0 0 Z " fill="#97702A" transform="translate(229,255)"/>
<path d="M0 0 C1.95803507 -0.05389087 3.91648909 -0.09274217 5.875 -0.125 C7.51082031 -0.15980469 7.51082031 -0.15980469 9.1796875 -0.1953125 C12 0 12 0 14 2 C12.75283203 2.09087891 12.75283203 2.09087891 11.48046875 2.18359375 C9.85044922 2.30927734 9.85044922 2.30927734 8.1875 2.4375 C6.56908203 2.55931641 6.56908203 2.55931641 4.91796875 2.68359375 C1.94010095 2.90212461 1.94010095 2.90212461 -1 4 C-0.67 2.68 -0.34 1.36 0 0 Z " fill="#A97D2D" transform="translate(174,162)"/>
<path d="M0 0 C5.75 -0.125 5.75 -0.125 8 1 C7.34 2.32 6.68 3.64 6 5 C3.03 4.505 3.03 4.505 0 4 C0 2.68 0 1.36 0 0 Z " fill="#97702A" transform="translate(220,189)"/>
<path d="M0 0 C0.66 0 1.32 0 2 0 C1.67 1.32 1.34 2.64 1 4 C1.99 3.67 2.98 3.34 4 3 C4 3.66 4 4.32 4 5 C4.66 5.33 5.32 5.66 6 6 C-0.625 7 -0.625 7 -4 7 C-2.79618552 4.50638429 -1.54571278 2.31856917 0 0 Z " fill="#AF812E" transform="translate(304,163)"/>
<path d="M0 0 C0.99 0 1.98 0 3 0 C3.66 1.65 4.32 3.3 5 5 C3.02 5.99 3.02 5.99 1 7 C-0.5 5.625 -0.5 5.625 -2 4 C-2 3.34 -2 2.68 -2 2 C-1.34 2 -0.68 2 0 2 C0 1.34 0 0.68 0 0 Z " fill="#BF8C31" transform="translate(254,161)"/>
<path d="M0 0 C5.93002267 -0.37851209 10.47239641 0.89424625 16 3 C15.67 3.99 15.34 4.98 15 6 C14.33613281 5.72285156 13.67226562 5.44570312 12.98828125 5.16015625 C12.10527344 4.79792969 11.22226563 4.43570313 10.3125 4.0625 C9.44238281 3.70285156 8.57226562 3.34320313 7.67578125 2.97265625 C5.11820735 2.0429688 2.6778677 1.45837375 0 1 C0 0.67 0 0.34 0 0 Z " fill="#AB7E2E" transform="translate(151,128)"/>
<path d="M0 0 C0.8971875 0.5259375 0.8971875 0.5259375 1.8125 1.0625 C-1.15791449 2.54770725 -3.88514447 2.2330822 -7.1875 2.25 C-9.0746875 2.27126953 -9.0746875 2.27126953 -11 2.29296875 C-14.1875 2.0625 -14.1875 2.0625 -16.1875 0.0625 C-15.04861328 0.07990234 -15.04861328 0.07990234 -13.88671875 0.09765625 C-12.89285156 0.10667969 -11.89898437 0.11570312 -10.875 0.125 C-9.88886719 0.13660156 -8.90273438 0.14820313 -7.88671875 0.16015625 C-0.26935053 -0.11543594 -0.26935053 -0.11543594 0 0 Z " fill="#B0822E" transform="translate(327.1875,284.9375)"/>
<path d="M0 0 C1 3 1 3 1 5 C-2.19902639 5.08886184 -4.92677456 4.91058531 -8 4 C-7.67 3.01 -7.34 2.02 -7 1 C-3.535 0.505 -3.535 0.505 0 0 Z " fill="#A0772C" transform="translate(312,279)"/>
<path d="M0 0 C0.33 0.66 0.66 1.32 1 2 C-3.30769231 7.78461538 -3.30769231 7.78461538 -6.8125 8.875 C-7.8953125 8.936875 -7.8953125 8.936875 -9 9 C-6 6 -3 3 0 0 Z " fill="#BD8B31" transform="translate(296,305)"/>
<path d="M0 0 C-5.94 3.465 -5.94 3.465 -12 7 C-12.33 6.01 -12.66 5.02 -13 4 C-11.40233897 3.13372601 -9.79660056 2.28233535 -8.1875 1.4375 C-7.29417969 0.96183594 -6.40085938 0.48617188 -5.48046875 -0.00390625 C-3 -1 -3 -1 0 0 Z " fill="#282217" transform="translate(221,262)"/>
<path d="M0 0 C0.99 0 1.98 0 3 0 C2.45276317 3.37462715 1.9451 5.08235 0 8 C-0.38499891 9.65549531 -0.72793135 11.3222433 -1 13 C-1.66 12.34 -2.32 11.68 -3 11 C-2.69670231 7.15822926 -1.47524576 4.90572328 1 2 C0.67 1.34 0.34 0.68 0 0 Z " fill="#BB8A30" transform="translate(211,161)"/>
<path d="M0 0 C1.5 1.1875 1.5 1.1875 3 3 C3.1875 5.6875 3.1875 5.6875 3 8 C2.01 8.495 2.01 8.495 1 9 C-1.14809171 5.77786243 -1.29386153 4.72224599 -1 1 C-0.67 0.67 -0.34 0.34 0 0 Z " fill="#A67B2D" transform="translate(264,161)"/>
<path d="M0 0 C0 0.33 0 0.66 0 1 C-0.75925781 1.20496094 -1.51851563 1.40992188 -2.30078125 1.62109375 C-3.29464844 1.89050781 -4.28851563 2.15992188 -5.3125 2.4375 C-6.29863281 2.70433594 -7.28476562 2.97117188 -8.30078125 3.24609375 C-10.21517526 3.78079425 -12.11433615 4.37144538 -14 5 C-14.33 4.01 -14.66 3.02 -15 2 C-9.75614911 0.2520497 -5.52677733 -0.19392201 0 0 Z " fill="#9E752B" transform="translate(349,128)"/>
<path d="M0 0 C3.49873271 1.39655297 4.70891831 2.71260484 6.25 6.125 C6.58515625 6.84945313 6.9203125 7.57390625 7.265625 8.3203125 C7.62914062 9.15175781 7.62914062 9.15175781 8 10 C6.140625 9.78515625 6.140625 9.78515625 4 9 C2.734375 6.93359375 2.734375 6.93359375 1.75 4.4375 C1.41484375 3.61121094 1.0796875 2.78492188 0.734375 1.93359375 C0.49203125 1.29550781 0.2496875 0.65742188 0 0 Z " fill="#B78630" transform="translate(253,339)"/>
<path d="M0 0 C1.01320313 0.61488281 1.01320313 0.61488281 2.046875 1.2421875 C2.93890625 1.78101563 3.8309375 2.31984375 4.75 2.875 C5.63171875 3.40867187 6.5134375 3.94234375 7.421875 4.4921875 C9.58274093 5.75596666 11.74570395 6.91498835 14 8 C13.01 8.495 13.01 8.495 12 9 C10.23046875 8.328125 10.23046875 8.328125 8.1875 7.25 C7.47980469 6.87875 6.77210938 6.5075 6.04296875 6.125 C3.65607607 4.81061168 1.31073617 3.44421011 -1 2 C-0.67 1.34 -0.34 0.68 0 0 Z " fill="#9D742B" transform="translate(310,288)"/>
<path d="M0 0 C2.475 0.495 2.475 0.495 5 1 C5.33 1.99 5.66 2.98 6 4 C8.01508358 4.73323796 8.01508358 4.73323796 10 5 C10 5.66 10 6.32 10 7 C6.71669298 6.43391258 5.18666601 5.49904687 3 3 C2.67 2.67 2.34 2.34 2 2 C1.01 2.495 1.01 2.495 0 3 C0 2.01 0 1.02 0 0 Z " fill="#B78630" transform="translate(180,277)"/>
<path d="M0 0 C0 0.66 0 1.32 0 2 C-0.66 2 -1.32 2 -2 2 C-2 2.66 -2 3.32 -2 4 C-3.65 4.33 -5.3 4.66 -7 5 C-7.33 3.68 -7.66 2.36 -8 1 C-5.29120665 -0.35439668 -2.99066732 -0.06501451 0 0 Z " fill="#B5852F" transform="translate(289,187)"/>
<path d="M0 0 C2.1640625 0.0234375 2.1640625 0.0234375 4.625 0.375 C5.85089844 0.54128906 5.85089844 0.54128906 7.1015625 0.7109375 C7.72804687 0.80632812 8.35453125 0.90171875 9 1 C8.01 1.495 8.01 1.495 7 2 C7 2.66 7 3.32 7 4 C2.545 3.01 2.545 3.01 -2 2 C-1.34 1.34 -0.68 0.68 0 0 Z " fill="#352B19" transform="translate(232,186)"/>
<path d="M0 0 C0 3 0 3 -1.75 5.04296875 C-2.4925 5.75066406 -3.235 6.45835937 -4 7.1875 C-4.7425 7.90292969 -5.485 8.61835938 -6.25 9.35546875 C-6.8275 9.89816406 -7.405 10.44085938 -8 11 C-8.33 10.34 -8.66 9.68 -9 9 C-8.67 8.34 -8.34 7.68 -8 7 C-7.34 7 -6.68 7 -6 7 C-5.7525 6.401875 -5.505 5.80375 -5.25 5.1875 C-3.83629988 2.71352479 -2.34944617 1.56629745 0 0 Z " fill="#C89233" transform="translate(302,168)"/>
<path d="M0 0 C1.18851563 0.19464844 2.37703125 0.38929688 3.6015625 0.58984375 C4.97441406 0.82380859 4.97441406 0.82380859 6.375 1.0625 C6.375 1.3925 6.375 1.7225 6.375 2.0625 C4.25027424 2.11636629 2.12516348 2.15523071 0 2.1875 C-1.77503906 2.22230469 -1.77503906 2.22230469 -3.5859375 2.2578125 C-6.625 2.0625 -6.625 2.0625 -8.625 0.0625 C-5.61666904 -1.44166548 -3.27538422 -0.54589737 0 0 Z " fill="#B6862F" transform="translate(179.625,284.9375)"/>
<path d="M0 0 C0.99 0 1.98 0 3 0 C3.33 0.33 3.66 0.66 4 1 C4.66 1 5.32 1 6 1 C5.67 1.99 5.34 2.98 5 4 C2.05610218 5.17755913 1.10046087 5.03348696 -2 4 C-1 1 -1 1 0 0 Z " fill="#A67A2D" transform="translate(274,256)"/>
<path d="M0 0 C0.66 0.33 1.32 0.66 2 1 C0.68085371 3.63829259 -0.23857335 3.98263229 -3 5 C-5.33203812 5.0777346 -7.66839059 5.08967728 -10 5 C-6.76527494 2.84351662 -3.62848922 1.38542316 0 0 Z " fill="#AA7E2E" transform="translate(165,316)"/>
<path d="M0 0 C0.66 0 1.32 0 2 0 C2 1.98 2 3.96 2 6 C0.68 6 -0.64 6 -2 6 C-1.125 1.125 -1.125 1.125 0 0 Z " fill="#C08D31" transform="translate(304,137)"/>
<path d="M0 0 C3 1 3 1 3.94921875 2.84765625 C4.19285156 3.57855469 4.43648438 4.30945313 4.6875 5.0625 C4.93886719 5.79597656 5.19023437 6.52945312 5.44921875 7.28515625 C5.63097656 7.85105469 5.81273437 8.41695313 6 9 C4.125 8.4375 4.125 8.4375 2 7 C0.75 3.375 0.75 3.375 0 0 Z " fill="#BD8B31" transform="translate(284,340)"/>
<path d="M0 0 C5.445 1.485 5.445 1.485 11 3 C11 3.33 11 3.66 11 4 C9.741875 4.04125 8.48375 4.0825 7.1875 4.125 C6.47980469 4.14820313 5.77210938 4.17140625 5.04296875 4.1953125 C3 4 3 4 0 2 C0 1.34 0 0.68 0 0 Z " fill="#A77B2D" transform="translate(335,317)"/>
<path d="M0 0 C0.33 0.66 0.66 1.32 1 2 C-0.21484375 4.3828125 -0.21484375 4.3828125 -1.9375 7.125 C-2.50339844 8.03507812 -3.06929687 8.94515625 -3.65234375 9.8828125 C-4.09707031 10.58148438 -4.54179687 11.28015625 -5 12 C-5.66 11.34 -6.32 10.68 -7 10 C-3.535 5.05 -3.535 5.05 0 0 Z " fill="#B1822F" transform="translate(190,303)"/>
<path d="M0 0 C0.99 0.33 1.98 0.66 3 1 C3 3.31 3 5.62 3 8 C2.34 8 1.68 8 1 8 C-0.35439668 5.29120665 -0.06501451 2.99066732 0 0 Z " fill="#C79132" transform="translate(303,305)"/>
<path d="M0 0 C0.66 0 1.32 0 2 0 C2.125 5.75 2.125 5.75 1 8 C0.34 8 -0.32 8 -1 8 C-1.04241723 5.66705225 -1.04092937 3.33297433 -1 1 C-0.67 0.67 -0.34 0.34 0 0 Z " fill="#C79232" transform="translate(195,305)"/>
<path d="M0 0 C0.99 0.33 1.98 0.66 3 1 C2.04270084 2.12588014 1.08412105 3.2506715 0.125 4.375 C-0.40867188 5.00148438 -0.94234375 5.62796875 -1.4921875 6.2734375 C-2.61432007 7.55836651 -3.79371975 8.79371975 -5 10 C-5 6.07176899 -3.48245551 4.93381106 -1 2 C-0.67 1.34 -0.34 0.68 0 0 Z " fill="#846327" transform="translate(209,268)"/>
<path d="M0 0 C0.99 0.33 1.98 0.66 3 1 C3 1.99 3 2.98 3 4 C3.66 4 4.32 4 5 4 C5 4.99 5 5.98 5 7 C2.5625 6.1875 2.5625 6.1875 0 5 C-0.33 4.01 -0.66 3.02 -1 2 C-0.67 1.34 -0.34 0.68 0 0 Z " fill="#846227" transform="translate(292,262)"/>
<path d="M0 0 C1.12758089 3.38274266 0.81750262 4.76778223 0.0625 8.1875 C-0.13214844 9.08855469 -0.32679688 9.98960937 -0.52734375 10.91796875 C-0.68332031 11.60503906 -0.83929688 12.29210937 -1 13 C-1.33 13 -1.66 13 -2 13 C-2 9.04 -2 5.08 -2 1 C-1.34 0.67 -0.68 0.34 0 0 Z " fill="#201D16" transform="translate(205,152)"/>
<path d="M0 0 C0.99 0.33 1.98 0.66 3 1 C3 2.98 3 4.96 3 7 C2.01 7 1.02 7 0 7 C0 4.69 0 2.38 0 0 Z " fill="#CA9433" transform="translate(194,137)"/>
<path d="M0 0 C0.66 0.66 1.32 1.32 2 2 C1.34 3.98 0.68 5.96 0 8 C-0.99 7.01 -1.98 6.02 -3 5 C-1.125 1.125 -1.125 1.125 0 0 Z " fill="#745724" transform="translate(211,272)"/>
<path d="M0 0 C2.3125 -0.3125 2.3125 -0.3125 5 0 C6.875 2.375 6.875 2.375 8 5 C7.67 5.66 7.34 6.32 7 7 C5.83040013 6.02433888 4.66438823 5.044375 3.5 4.0625 C2.8503125 3.51722656 2.200625 2.97195313 1.53125 2.41015625 C1.0259375 1.94480469 0.520625 1.47945313 0 1 C0 0.67 0 0.34 0 0 Z " fill="#9E752B" transform="translate(285,267)"/>
<path d="M0 0 C1.65 0.33 3.3 0.66 5 1 C4.67 2.32 4.34 3.64 4 5 C3.34 5 2.68 5 2 5 C2 4.34 2 3.68 2 3 C1.01 2.67 0.02 2.34 -1 2 C-0.67 1.34 -0.34 0.68 0 0 Z " fill="#BA8830" transform="translate(214,187)"/>
<path d="M0 0 C3.26954202 0.56371414 4.82575883 1.49962266 7 4 C6.67 4.99 6.34 5.98 6 7 C3.95880212 5.38405168 1.95927063 3.7143618 0 2 C0 1.34 0 0.68 0 0 Z " fill="#B2832F" transform="translate(287,135)"/>
<path d="M0 0 C1.32 0.33 2.64 0.66 4 1 C4.33 2.65 4.66 4.3 5 6 C4.01 6.66 3.02 7.32 2 8 C2.04125 7.236875 2.0825 6.47375 2.125 5.6875 C2.22080824 2.77281584 2.22080824 2.77281584 0 0 Z " fill="#BF8C31" transform="translate(283,330)"/>
<path d="M0 0 C1.32 0.99 2.64 1.98 4 3 C3.34 4.65 2.68 6.3 2 8 C1.34 7.67 0.68 7.34 0 7 C0 4.69 0 2.38 0 0 Z " fill="#735624" transform="translate(288,272)"/>
<path d="M0 0 C0.66 0 1.32 0 2 0 C2 0.66 2 1.32 2 2 C2.99 2.33 3.98 2.66 5 3 C5 4.32 5 5.64 5 7 C4.34 7 3.68 7 3 7 C3 6.34 3 5.68 3 5 C2.34 5 1.68 5 1 5 C0.67 3.35 0.34 1.7 0 0 Z " fill="#866427" transform="translate(202,179)"/>
<path d="M0 0 C0.721875 0.103125 1.44375 0.20625 2.1875 0.3125 C1.1975 0.9725 0.2075 1.6325 -0.8125 2.3125 C-2.48673683 3.63631517 -4.15461215 4.96826661 -5.8125 6.3125 C-6.4725 5.9825 -7.1325 5.6525 -7.8125 5.3125 C-3.50480769 0.38942308 -3.50480769 0.38942308 0 0 Z " fill="#C79232" transform="translate(189.8125,165.6875)"/>
<path d="M0 0 C0.88492145 2.47778006 1.11637742 3.66056586 0.25 6.1875 C-1 8 -1 8 -4 9 C-3.34 7.02 -2.68 5.04 -2 3 C-1.34 3 -0.68 3 0 3 C0 2.01 0 1.02 0 0 Z " fill="#6B5123" transform="translate(299,297)"/>
<path d="M0 0 C0.66 0 1.32 0 2 0 C1.50168276 3.68754757 0.89932357 5.60490662 -2 8 C-2 4.79604584 -1.25664978 2.90600261 0 0 Z " fill="#B2832F" transform="translate(296,297)"/>
<path d="M0 0 C0 1.32 0 2.64 0 4 C-1.32 3.67 -2.64 3.34 -4 3 C-4 2.34 -4 1.68 -4 1 C-4.66 0.67 -5.32 0.34 -6 0 C-3 -1 -3 -1 0 0 Z " fill="#956F2A" transform="translate(280,189)"/>
</svg>
